<?xml version="1.0" encoding="UTF-8" standalone="no"?>
<!-- Created with Inkscape (http://www.inkscape.org/) -->

<svg
   xmlns:dc="http://purl.org/dc/elements/1.1/"
   xmlns:cc="http://creativecommons.org/ns#"
   xmlns:rdf="http://www.w3.org/1999/02/22-rdf-syntax-ns#"
   xmlns:svg="http://www.w3.org/2000/svg"
   xmlns="http://www.w3.org/2000/svg"
   xmlns:sodipodi="http://sodipodi.sourceforge.net/DTD/sodipodi-0.dtd"
   xmlns:inkscape="http://www.inkscape.org/namespaces/inkscape"
   width="994.22986"
   height="427.10483"
   viewBox="0 0 263.05665 113.00481"
   version="1.1"
   id="svg8"
   inkscape:version="0.92.4 (5da689c313, 2019-01-14)"
   sodipodi:docname="logo (vector).svg"
   inkscape:export-filename="C:\Users\Oscar\Desktop\logo (vector).png"
   inkscape:export-xdpi="96"
   inkscape:export-ydpi="96">
  <defs
     id="defs2" />
  <sodipodi:namedview
     id="base"
     pagecolor="#ffffff"
     bordercolor="#666666"
     borderopacity="1.0"
     inkscape:pageopacity="0.0"
     inkscape:pageshadow="2"
     inkscape:zoom="0.98994949"
     inkscape:cx="685.07146"
     inkscape:cy="189.60693"
     inkscape:document-units="px"
     inkscape:current-layer="text53"
     showgrid="false"
     inkscape:window-width="1920"
     inkscape:window-height="1017"
     inkscape:window-x="-8"
     inkscape:window-y="-8"
     inkscape:window-maximized="1"
     units="px"
     fit-margin-top="-35"
     fit-margin-left="-20"
     fit-margin-right="8"
     fit-margin-bottom="-35" />
  <metadata
     id="metadata5">
    <rdf:RDF>
      <cc:Work
         rdf:about="">
        <dc:format>image/svg+xml</dc:format>
        <dc:type
           rdf:resource="http://purl.org/dc/dcmitype/StillImage" />
        <dc:title />
      </cc:Work>
    </rdf:RDF>
  </metadata>
  <g
     inkscape:label="Capa 1"
     inkscape:groupmode="layer"
     id="layer1"
     transform="translate(-22.9051,-139.19144)">
    <g
       id="g39">
      <g
         aria-label="scar"
         style="font-style:normal;font-variant:normal;font-weight:normal;font-stretch:normal;font-size:43.00675964px;line-height:1.25;font-family:'phitradesign INK';-inkscape-font-specification:'phitradesign INK';letter-spacing:0px;word-spacing:0px;fill:#000000;fill-opacity:1;stroke:none;stroke-width:0.44798708"
         id="text53">
        <g
           id="g64"
           transform="translate(-1.923108e-7,1.336348)">
          <path
             style="fill:#a0cfcf;stroke-width:0.11852992"
             d="m 49.692851,247.45519 c 0.327422,-0.0631 0.863203,-0.0631 1.190625,0 0.327422,0.0631 0.05953,0.11466 -0.595313,0.11466 -0.654843,0 -0.922734,-0.0516 -0.595312,-0.11466 z m 2.778125,0.004 c 0.254661,-0.0666 0.67138,-0.0666 0.926041,0 0.254662,0.0666 0.0463,0.121 -0.46302,0.121 -0.509323,0 -0.717683,-0.0545 -0.463021,-0.121 z m 82.504744,-4.46987 c 0.0127,-0.30823 0.0754,-0.37092 0.15985,-0.15985 0.0764,0.19099 0.067,0.4192 -0.0209,0.50712 -0.0879,0.0879 -0.15045,-0.0684 -0.13896,-0.34727 z m -80.784953,-7.16464 c 0.181901,-0.0734 0.479558,-0.0734 0.661459,0 0.181901,0.0734 0.03307,0.13345 -0.330729,0.13345 -0.363803,0 -0.512631,-0.0601 -0.33073,-0.13345 z m 4.7625,0 c 0.181901,-0.0734 0.479557,-0.0734 0.661458,0 0.181902,0.0734 0.03307,0.13345 -0.330729,0.13345 -0.363802,0 -0.51263,-0.0601 -0.330729,-0.13345 z m -7.127213,-0.27009 c 0.190995,-0.0764 0.419198,-0.067 0.507119,0.0209 0.08792,0.0879 -0.06835,0.15046 -0.347266,0.13897 -0.308226,-0.0127 -0.370919,-0.0754 -0.159853,-0.15985 z m 30.741275,-2.03583 c 0,-0.0549 0.208359,-0.2633 0.463021,-0.46302 0.419645,-0.3291 0.429003,-0.31975 0.0999,0.0999 -0.345644,0.44073 -0.562917,0.58089 -0.562917,0.36312 z m 5.242057,-0.87459 c 0.190995,-0.0764 0.419198,-0.067 0.507119,0.0209 0.08792,0.0879 -0.06835,0.15045 -0.347266,0.13896 -0.308226,-0.0127 -0.370919,-0.0754 -0.159853,-0.15985 z m 157.162494,-0.26458 c 0.19099,-0.0764 0.4192,-0.067 0.50712,0.0209 0.0879,0.0879 -0.0684,0.15046 -0.34727,0.13897 -0.30822,-0.0127 -0.37092,-0.0754 -0.15985,-0.15985 z m -204.895313,-1.73749 -0.504028,-0.59532 0.595312,0.50403 c 0.559447,0.47367 0.715762,0.6866 0.504028,0.6866 -0.05021,0 -0.318097,-0.26789 -0.595312,-0.59531 z m 111.588783,0.0661 c 0,-0.3638 0.0601,-0.51263 0.13345,-0.33073 0.0734,0.18191 0.0734,0.47956 0,0.66146 -0.0734,0.1819 -0.13345,0.0331 -0.13345,-0.33073 z m -47.17136,-0.46302 c -0.3291,-0.41964 -0.31974,-0.429 0.0999,-0.0999 0.44073,0.34564 0.58089,0.56291 0.36313,0.56291 -0.055,0 -0.2633,-0.20836 -0.46303,-0.46302 z m -16.105828,-2.57969 c 0.341775,-0.3638 0.680939,-0.66145 0.7537,-0.66145 0.07276,0 -0.147341,0.29765 -0.489117,0.66145 -0.341775,0.36381 -0.680939,0.66146 -0.7537,0.66146 -0.07276,0 0.147341,-0.29765 0.489117,-0.66146 z m 36.268808,0.24254 c 0.0127,-0.30823 0.0754,-0.37092 0.15985,-0.15985 0.0764,0.19099 0.067,0.4192 -0.0209,0.50712 -0.0879,0.0879 -0.15045,-0.0684 -0.13896,-0.34727 z m 11.62077,-0.21014 c 0,-0.0549 0.20836,-0.2633 0.46302,-0.46302 0.41965,-0.32911 0.42901,-0.31975 0.0999,0.0999 -0.34564,0.44073 -0.56292,0.58088 -0.56292,0.36312 z m 84.71825,-0.56156 c 0.005,-0.43656 0.0647,-0.58313 0.13177,-0.3257 0.0671,0.25744 0.0627,0.61462 -0.01,0.79375 -0.0725,0.17914 -0.12736,-0.0315 -0.12197,-0.46805 z m 19.81305,0.24253 c 0.0127,-0.30822 0.0754,-0.37092 0.15986,-0.15985 0.0764,0.191 0.067,0.4192 -0.0209,0.50712 -0.0879,0.0879 -0.15045,-0.0683 -0.13896,-0.34727 z m -161.152128,-0.9864 c 0,-0.0455 0.386953,-0.43249 0.859896,-0.8599 l 0.859896,-0.7771 -0.777105,0.85989 c -0.724371,0.80155 -0.942687,0.98152 -0.942687,0.77711 z m 23.334918,-0.57867 c 0.005,-0.43656 0.0647,-0.58312 0.13177,-0.32569 0.0671,0.25743 0.0627,0.61462 -0.01,0.79375 -0.0725,0.17913 -0.12736,-0.0315 -0.12197,-0.46806 z m 10.53175,0.29698 c 0,-0.0549 0.20836,-0.2633 0.46302,-0.46302 0.41964,-0.32911 0.429,-0.31975 0.0999,0.0999 -0.34564,0.44073 -0.56291,0.58088 -0.56291,0.36312 z m -86.762444,-1.11278 c 0.0127,-0.30822 0.07539,-0.37092 0.159852,-0.15985 0.07643,0.191 0.06703,0.4192 -0.02089,0.50712 -0.08792,0.0879 -0.150453,-0.0684 -0.138964,-0.34727 z m 115.866604,-0.4915 c 0,-0.8107 0.1508,-0.87619 0.34118,-0.14817 0.0761,0.2909 0.0304,0.59558 -0.10143,0.67707 -0.13186,0.0815 -0.23975,-0.15651 -0.23975,-0.5289 z m -8.99583,0.29847 c 0,-0.0455 0.38695,-0.43249 0.8599,-0.8599 l 0.85989,-0.7771 -0.7771,0.85989 c -0.72437,0.80155 -0.94269,0.98152 -0.94269,0.77711 z m 116.94583,-0.54627 c 0,-0.0549 0.20836,-0.2633 0.46302,-0.46302 0.41964,-0.32911 0.429,-0.31975 0.0999,0.0999 -0.34565,0.44073 -0.56292,0.58089 -0.56292,0.36313 z m -215.054662,-3.2074 c 0.0054,-0.43656 0.06469,-0.58312 0.131773,-0.32569 0.06708,0.25743 0.06267,0.61462 -0.0098,0.79375 -0.07248,0.17913 -0.127363,-0.0315 -0.12197,-0.46806 z m 0,-1.85208 c 0.0054,-0.43656 0.06469,-0.58313 0.131773,-0.3257 0.06708,0.25744 0.06267,0.61462 -0.0098,0.79375 -0.07248,0.17914 -0.127363,-0.0315 -0.12197,-0.46805 z m 173.006802,-0.55122 c 0.0127,-0.30822 0.0754,-0.37092 0.15985,-0.15985 0.0764,0.191 0.067,0.4192 -0.0209,0.50712 -0.0879,0.0879 -0.15045,-0.0684 -0.13896,-0.34727 z m -78.60214,-3.38514 c 0,-0.0549 0.20836,-0.2633 0.46302,-0.46302 0.41965,-0.3291 0.42901,-0.31975 0.0999,0.0999 -0.34564,0.44073 -0.56292,0.58089 -0.56292,0.36312 z m 118.13646,-1.75218 c 0.26339,-0.29105 0.53842,-0.52917 0.61118,-0.52917 0.0728,0 -0.0832,0.23812 -0.3466,0.52917 -0.26339,0.29104 -0.53842,0.52916 -0.61118,0.52916 -0.0728,0 0.0832,-0.23812 0.3466,-0.52916 z m 10.96018,-1.52136 -0.64143,-0.7276 0.7276,0.64143 c 0.40018,0.35279 0.72761,0.68021 0.72761,0.7276 0,0.20751 -0.21426,0.0386 -0.81378,-0.64143 z m -55.06292,0.28228 c 0.191,-0.0764 0.41921,-0.067 0.50712,0.0209 0.0879,0.0879 -0.0684,0.15045 -0.34726,0.13896 -0.30823,-0.0127 -0.37092,-0.0754 -0.15986,-0.15985 z M 26.426055,211.21326 c 0.190996,-0.0764 0.419199,-0.067 0.507118,0.0209 0.08792,0.0879 -0.06835,0.15045 -0.347266,0.13896 -0.308224,-0.0127 -0.370919,-0.0754 -0.159852,-0.15985 z m 231.824605,-4.94624 c 0,-0.0549 0.20835,-0.2633 0.46302,-0.46302 0.41964,-0.32911 0.429,-0.31975 0.0999,0.0999 -0.34564,0.44073 -0.56291,0.58088 -0.56291,0.36312 z m -73.33919,-4.04959 c 0.19099,-0.0764 0.4192,-0.067 0.50711,0.0209 0.0879,0.0879 -0.0683,0.15046 -0.34726,0.13897 -0.30823,-0.0127 -0.37092,-0.0754 -0.15985,-0.15985 z m 74.59596,-0.78824 c 0.1819,-0.0734 0.47955,-0.0734 0.66145,0 0.18191,0.0734 0.0331,0.13345 -0.33072,0.13345 -0.36381,0 -0.51263,-0.06 -0.33073,-0.13345 z m -84.84422,-4.47703 c 0.0127,-0.30823 0.0754,-0.37092 0.15985,-0.15985 0.0764,0.19099 0.067,0.4192 -0.0209,0.50712 -0.0879,0.0879 -0.15045,-0.0684 -0.13897,-0.34727 z M 39.572539,194.46067 c 0.263389,-0.29105 0.53842,-0.52917 0.611181,-0.52917 0.07276,0 -0.08321,0.23812 -0.346598,0.52917 -0.263389,0.29104 -0.53842,0.52916 -0.611181,0.52916 -0.07276,0 0.08321,-0.23812 0.346598,-0.52916 z m 9.260416,-1.05834 c 0.263389,-0.29104 0.538421,-0.52916 0.611181,-0.52916 0.07276,0 -0.08321,0.23812 -0.346598,0.52916 -0.263389,0.29104 -0.53842,0.52917 -0.61118,0.52917 -0.07276,0 0.08321,-0.23813 0.346597,-0.52917 z M 35.206914,192.2441 c 0,-0.0549 0.208359,-0.2633 0.463021,-0.46302 0.419644,-0.3291 0.429002,-0.31975 0.09989,0.0999 -0.345643,0.44073 -0.562915,0.58089 -0.562915,0.36312 z m 138.662546,-1.11277 c 0.0127,-0.30823 0.0754,-0.37092 0.15985,-0.15986 0.0764,0.191 0.067,0.4192 -0.0209,0.50712 -0.0879,0.0879 -0.15045,-0.0684 -0.13897,-0.34726 z M 40.49858,186.65546 c 1.3767,-1.38245 2.562622,-2.51354 2.635382,-2.51354 0.07276,0 -0.994098,1.13109 -2.370798,2.51354 -1.3767,1.38245 -2.562622,2.51354 -2.635382,2.51354 -0.07276,0 0.994099,-1.13109 2.370798,-2.51354 z m 5.688542,1.98437 c 0.263389,-0.29104 0.53842,-0.52916 0.611181,-0.52916 0.07276,0 -0.08321,0.23812 -0.346598,0.52916 -0.263389,0.29105 -0.53842,0.52917 -0.611181,0.52917 -0.07276,0 0.08321,-0.23812 0.346598,-0.52917 z M 167.27577,187.5815 c 0,-0.3638 0.0601,-0.51263 0.13345,-0.33073 0.0734,0.1819 0.0734,0.47956 0,0.66146 -0.0734,0.1819 -0.13345,0.0331 -0.13345,-0.33073 z m -66.41042,-1.32292 c 0,-0.3638 0.0601,-0.51263 0.13346,-0.33073 0.0734,0.18191 0.0734,0.47956 0,0.66146 -0.0734,0.1819 -0.13346,0.0331 -0.13346,-0.33073 z m -51.370937,-1.19062 c 0.341775,-0.3638 0.680939,-0.66146 0.7537,-0.66146 0.07276,0 -0.147342,0.29766 -0.489116,0.66146 -0.341774,0.3638 -0.680939,0.66146 -0.7537,0.66146 -0.07276,0 0.147342,-0.29766 0.489116,-0.66146 z m 58.809557,-0.39688 c 0,-0.65484 0.0516,-0.92273 0.11467,-0.59531 0.0631,0.32742 0.0631,0.8632 0,1.19063 -0.0631,0.32742 -0.11467,0.0595 -0.11467,-0.59532 z m -50.872057,0.42927 c 0,-0.0549 0.208359,-0.2633 0.463021,-0.46302 0.419645,-0.3291 0.429003,-0.31975 0.0999,0.0999 -0.345644,0.44073 -0.562917,0.58089 -0.562917,0.36312 z m 116.213467,-1.22302 c 0,-0.50932 0.0545,-0.71768 0.121,-0.46302 0.0666,0.25466 0.0666,0.67138 0,0.92604 -0.0666,0.25467 -0.121,0.0463 -0.121,-0.46302 z M 46.319413,181.09921 c 0.341775,-0.3638 0.68094,-0.66146 0.7537,-0.66146 0.07276,0 -0.147342,0.29766 -0.489116,0.66146 -0.341774,0.3638 -0.680939,0.66146 -0.7537,0.66146 -0.07276,0 0.147342,-0.29766 0.489116,-0.66146 z m 127.020887,-0.8158 c 0.0127,-0.30823 0.0754,-0.37092 0.15985,-0.15985 0.0764,0.19099 0.067,0.4192 -0.0209,0.50712 -0.0879,0.0879 -0.15045,-0.0684 -0.13896,-0.34727 z M 48.965247,178.75035 c 0,-0.0549 0.208359,-0.2633 0.463021,-0.46302 0.419644,-0.3291 0.429002,-0.31975 0.09989,0.0999 -0.345643,0.44073 -0.562915,0.58089 -0.562915,0.36312 z m 124.110463,-0.58361 c 0.0127,-0.30822 0.0754,-0.37092 0.15985,-0.15985 0.0764,0.191 0.067,0.4192 -0.0209,0.50712 -0.0879,0.0879 -0.15045,-0.0684 -0.13897,-0.34727 z M 67.965637,177.34659 c 0.190994,-0.0764 0.419198,-0.067 0.507119,0.0209 0.08792,0.0879 -0.06835,0.15045 -0.347266,0.13896 -0.308226,-0.0127 -0.370919,-0.0754 -0.159853,-0.15985 z m 2.645833,-0.26458 c 0.190995,-0.0764 0.419198,-0.067 0.507119,0.0209 0.08792,0.0879 -0.06835,0.15045 -0.347266,0.13896 -0.308226,-0.0127 -0.370919,-0.0754 -0.159853,-0.15985 z m -19.529557,-0.18374 c 0,-0.0549 0.20836,-0.2633 0.463021,-0.46302 0.419645,-0.32911 0.429003,-0.31975 0.0999,0.0999 -0.345644,0.44073 -0.562917,0.58088 -0.562917,0.36312 z m 45.223722,-3.80271 -0.641432,-0.7276 0.727604,0.64143 c 0.680056,0.59952 0.84894,0.81378 0.641432,0.81378 -0.04739,0 -0.374814,-0.32743 -0.727604,-0.72761 z m -19.59289,-1.32291 c -0.329107,-0.41965 -0.319749,-0.42901 0.0999,-0.0999 0.44073,0.34564 0.580888,0.56292 0.363125,0.56292 -0.05494,0 -0.2633,-0.20836 -0.463021,-0.46302 z m -3.262241,-1.37078 c -0.08372,-0.13547 -0.05106,-0.30883 0.07258,-0.38524 0.123643,-0.0764 0.224804,0.0344 0.224804,0.2463 0,0.44613 -0.08343,0.48511 -0.297382,0.13894 z m 5.611096,-1.51643 c 0.181901,-0.0734 0.479557,-0.0734 0.661458,0 0.181901,0.0734 0.03307,0.13345 -0.330729,0.13345 -0.363802,0 -0.51263,-0.06 -0.330729,-0.13345 z m 132.75468,-0.35394 c 0.26339,-0.29104 0.53842,-0.52917 0.61118,-0.52917 0.0728,0 -0.0832,0.23813 -0.34659,0.52917 -0.26339,0.29104 -0.53843,0.52917 -0.61119,0.52917 -0.0728,0 0.0832,-0.23813 0.3466,-0.52917 z m -128.78593,0.0779 c 0.327421,-0.0631 0.863203,-0.0631 1.190625,0 0.327421,0.0631 0.05953,0.11466 -0.595313,0.11466 -0.654844,0 -0.922734,-0.0516 -0.595312,-0.11466 z m 134.31704,-1.20234 -0.50402,-0.59531 0.59531,0.50403 c 0.32742,0.27721 0.59531,0.5451 0.59531,0.59531 0,0.21173 -0.21293,0.0554 -0.6866,-0.50403 z M 80.930219,162.79451 c 0.190995,-0.0764 0.419198,-0.067 0.507119,0.0209 0.08792,0.0879 -0.06835,0.15045 -0.347265,0.13896 -0.308227,-0.0127 -0.37092,-0.0754 -0.159854,-0.15985 z m 5.539714,0.006 c 0.181901,-0.0734 0.479557,-0.0734 0.661458,0 0.181901,0.0734 0.03307,0.13345 -0.330729,0.13345 -0.363802,0 -0.51263,-0.06 -0.330729,-0.13345 z m 8.532812,-9.44966 c 0,-0.0549 0.208359,-0.26331 0.463021,-0.46303 0.419645,-0.3291 0.429003,-0.31974 0.0999,0.0999 -0.345644,0.44073 -0.562917,0.58089 -0.562917,0.36313 z m -4.894792,-2.81053 c 0.263391,-0.29104 0.538422,-0.52916 0.611183,-0.52916 0.07276,0 -0.08321,0.23812 -0.346599,0.52916 -0.26339,0.29104 -0.538422,0.52917 -0.611182,0.52917 -0.07276,0 0.08321,-0.23813 0.346598,-0.52917 z m 6.35,-6.35 c 0.26339,-0.29104 0.538422,-0.52916 0.611182,-0.52916 0.07276,0 -0.08321,0.23812 -0.346598,0.52916 -0.26339,0.29104 -0.538422,0.52917 -0.611183,0.52917 -0.07276,0 0.08321,-0.23813 0.346599,-0.52917 z m 2.513542,-2.21656 c 0,-0.0549 0.208359,-0.2633 0.463021,-0.46302 0.419645,-0.32911 0.429003,-0.31975 0.0999,0.0999 -0.345644,0.44072 -0.562917,0.58088 -0.562917,0.36312 z m 5.927985,-1.02458 -0.50403,-0.59532 0.59532,0.50403 c 0.32742,0.27722 0.59531,0.54511 0.59531,0.59532 0,0.21173 -0.21294,0.0554 -0.6866,-0.50403 z m -3.34521,-0.91474 c 0.32912,-0.0633 0.80537,-0.0609 1.05833,0.005 0.25297,0.0662 -0.0163,0.11801 -0.5984,0.11507 -0.58208,-0.003 -0.78905,-0.0571 -0.45993,-0.12041 z"
             id="path78"
             inkscape:connector-curvature="0" />
          <path
             style="fill:#a0a1a1;stroke-width:0.11852992"
             d="m 84.624842,232.63118 c 0.622311,-0.0559 1.574811,-0.0551 2.116667,0.002 0.541856,0.0568 0.0327,0.10258 -1.131472,0.10162 -1.164167,-0.001 -1.607505,-0.0475 -0.985195,-0.10337 z m 184.812438,-0.26532 c 0.69562,-0.0547 1.76718,-0.054 2.38125,0.002 0.61408,0.0555 0.0449,0.10023 -1.26475,0.0994 -1.30969,-7.9e-4 -1.81211,-0.0462 -1.1165,-0.10089 z m -70.25011,-0.26153 c 0.47555,-0.0589 1.18992,-0.0577 1.5875,0.003 0.39757,0.0604 0.008,0.10855 -0.86464,0.10707 -0.87312,-0.002 -1.19841,-0.0509 -0.72286,-0.10977 z m -92.57651,-3.44627 c -0.32911,-0.41964 -0.31975,-0.429 0.0999,-0.0999 0.44073,0.34564 0.58088,0.56291 0.36312,0.56291 -0.0549,0 -0.2633,-0.20836 -0.46302,-0.46302 z m 92.85289,0.28228 c 0.19099,-0.0764 0.4192,-0.067 0.50712,0.0209 0.0879,0.0879 -0.0684,0.15045 -0.34727,0.13896 -0.30822,-0.0127 -0.37092,-0.0754 -0.15985,-0.15985 z m 51.90794,0.0808 c 0,-0.0549 0.20836,-0.2633 0.46302,-0.46302 0.41964,-0.32911 0.429,-0.31975 0.0999,0.0999 -0.34565,0.44073 -0.56292,0.58089 -0.56292,0.36313 z m -126.68383,-2.14907 c 0.005,-0.43656 0.0647,-0.58312 0.13177,-0.32569 0.0671,0.25743 0.0627,0.61462 -0.01,0.79375 -0.0725,0.17913 -0.12736,-0.0315 -0.12197,-0.46806 z m 157.1318,-0.28663 c 0.0127,-0.30822 0.0754,-0.37092 0.15985,-0.15985 0.0764,0.191 0.067,0.4192 -0.0209,0.50712 -0.0879,0.0879 -0.15045,-0.0684 -0.13896,-0.34727 z m -27.66985,-0.37482 c 0.26339,-0.29105 0.53843,-0.52917 0.61119,-0.52917 0.0728,0 -0.0832,0.23812 -0.3466,0.52917 -0.26339,0.29104 -0.53842,0.52916 -0.61119,0.52916 -0.0728,0 0.0832,-0.23812 0.3466,-0.52916 z m -33.15362,-0.39688 c 0.005,-0.43656 0.0647,-0.58312 0.13177,-0.32569 0.0671,0.25743 0.0627,0.61462 -0.01,0.79375 -0.0725,0.17913 -0.12736,-0.0315 -0.12197,-0.46806 z m -88.15783,-0.23219 c 0,-0.0549 0.20836,-0.2633 0.46302,-0.46302 0.41965,-0.3291 0.429,-0.31975 0.0999,0.0999 -0.34565,0.44073 -0.56292,0.58089 -0.56292,0.36312 z m 57.96464,-0.58361 c 0.0127,-0.30822 0.0754,-0.37092 0.15985,-0.15985 0.0764,0.191 0.067,0.4192 -0.0209,0.50712 -0.0879,0.0879 -0.15045,-0.0684 -0.13896,-0.34727 z m 65.59577,-0.52273 c 0,-0.25957 -0.1226,-0.33883 -0.33073,-0.21379 -0.22472,0.13501 -0.21434,0.0552 0.0324,-0.24897 0.45705,-0.56346 0.43722,-0.5719 0.50224,0.21379 0.0301,0.3638 -0.003,0.66146 -0.0746,0.66146 -0.0711,0 -0.12933,-0.18562 -0.12933,-0.41249 z m -5.02708,-1.01032 c 0,-0.0549 0.20836,-0.2633 0.46302,-0.46302 0.41964,-0.32911 0.429,-0.31975 0.0999,0.0999 -0.34565,0.44073 -0.56292,0.58089 -0.56292,0.36313 z M 135.21941,223.2003 c 0,-0.0549 0.20836,-0.2633 0.46302,-0.46302 0.41965,-0.3291 0.429,-0.31975 0.0999,0.0999 -0.34565,0.44073 -0.56292,0.58089 -0.56292,0.36312 z m 77.05513,-4.39802 c 0,-0.50932 0.0545,-0.71768 0.121,-0.46302 0.0665,0.25466 0.0665,0.67138 0,0.92604 -0.0666,0.25467 -0.121,0.0463 -0.121,-0.46302 z m -50.99367,-2.11666 c 0.26339,-0.29104 0.53842,-0.52917 0.61118,-0.52917 0.0728,0 -0.0832,0.23813 -0.3466,0.52917 -0.26339,0.29104 -0.53842,0.52916 -0.61118,0.52916 -0.0728,0 0.0832,-0.23812 0.3466,-0.52916 z m -28.44271,-0.66146 c 0.34178,-0.3638 0.68094,-0.66146 0.7537,-0.66146 0.0728,0 -0.14734,0.29766 -0.48912,0.66146 -0.34177,0.3638 -0.68094,0.66146 -0.7537,0.66146 -0.0728,0 0.14734,-0.29766 0.48912,-0.66146 z m 116.94583,-0.52917 c 0.34177,-0.3638 0.68094,-0.66146 0.7537,-0.66146 0.0728,0 -0.14734,0.29766 -0.48912,0.66146 -0.34177,0.3638 -0.68094,0.66146 -0.7537,0.66146 -0.0728,0 0.14734,-0.29766 0.48912,-0.66146 z m -89.56146,-1.19062 c 0.26339,-0.29105 0.53843,-0.52917 0.61119,-0.52917 0.0728,0 -0.0832,0.23812 -0.3466,0.52917 -0.26339,0.29104 -0.53842,0.52916 -0.61118,0.52916 -0.0728,0 0.0832,-0.23812 0.34659,-0.52916 z m -29.50104,0.18179 c 0,-0.0455 0.38696,-0.43249 0.8599,-0.8599 l 0.8599,-0.7771 -0.77711,0.85989 c -0.72437,0.80155 -0.94269,0.98152 -0.94269,0.77711 z m 37.83542,-0.0171 c 0,-0.0549 0.20836,-0.2633 0.46302,-0.46302 0.41964,-0.32911 0.429,-0.31975 0.0999,0.0999 -0.34565,0.44074 -0.56292,0.5809 -0.56292,0.36313 z m 38.33083,-0.62769 c -0.32911,-0.41965 -0.31975,-0.42901 0.0999,-0.0999 0.44073,0.34564 0.58088,0.56292 0.36312,0.56292 -0.0549,0 -0.2633,-0.20836 -0.46302,-0.46302 z m -11.07875,0.0985 c 0,-0.0549 0.20836,-0.2633 0.46302,-0.46302 0.41965,-0.32911 0.42901,-0.31975 0.0999,0.0999 -0.34565,0.44073 -0.56292,0.58089 -0.56292,0.36313 z m 27.00839,-1.11278 c 0.0127,-0.30823 0.0754,-0.37092 0.15985,-0.15985 0.0764,0.19099 0.067,0.4192 -0.0209,0.50712 -0.0879,0.0879 -0.15045,-0.0684 -0.13896,-0.34727 z m -0.58381,-1.89618 c -0.3291,-0.41965 -0.31975,-0.429 0.0999,-0.0999 0.44073,0.34565 0.58089,0.56292 0.36312,0.56292 -0.0549,0 -0.2633,-0.20836 -0.46302,-0.46302 z m 31.71761,-1.82887 c 0.1819,-0.0734 0.47955,-0.0734 0.66145,0 0.18191,0.0734 0.0331,0.13345 -0.33072,0.13345 -0.36381,0 -0.51263,-0.0601 -0.33073,-0.13345 z m -66.32338,-4.21245 c 0.0127,-0.30823 0.0754,-0.37092 0.15985,-0.15985 0.0764,0.19099 0.067,0.4192 -0.0209,0.50712 -0.0879,0.0879 -0.15045,-0.0684 -0.13896,-0.34727 z m -4.23334,-0.26458 c 0.0127,-0.30823 0.0754,-0.37092 0.15985,-0.15986 0.0764,0.191 0.067,0.4192 -0.0209,0.50712 -0.0879,0.0879 -0.15045,-0.0684 -0.13897,-0.34726 z m 1.69891,-1.69775 c -0.43138,-0.18537 -0.44649,-0.23082 -0.0818,-0.24598 0.24608,-0.0102 0.521,0.10046 0.61093,0.24598 0.18803,0.30424 0.17884,0.30424 -0.52916,0 z m 3.83645,-0.89364 c 0,-0.0549 0.20836,-0.2633 0.46303,-0.46302 0.41964,-0.32911 0.429,-0.31975 0.0999,0.0999 -0.34564,0.44073 -0.56292,0.58089 -0.56292,0.36313 z m 0.81464,-1.64195 c 0.0127,-0.30822 0.0754,-0.37092 0.15985,-0.15985 0.0764,0.191 0.067,0.4192 -0.0209,0.50712 -0.0879,0.0879 -0.15045,-0.0684 -0.13897,-0.34727 z m -4.23333,-0.26458 c 0.0127,-0.30823 0.0754,-0.37092 0.15985,-0.15985 0.0764,0.19099 0.067,0.4192 -0.0209,0.50712 -0.0879,0.0879 -0.15046,-0.0684 -0.13897,-0.34727 z m 6.01492,-8.49307 c 0.19099,-0.0764 0.4192,-0.067 0.50712,0.0209 0.0879,0.0879 -0.0684,0.15045 -0.34727,0.13896 -0.30822,-0.0127 -0.37092,-0.0754 -0.15985,-0.15985 z m 2.64583,-5.02708 c 0.191,-0.0764 0.4192,-0.067 0.50712,0.0209 0.0879,0.0879 -0.0684,0.15045 -0.34726,0.13896 -0.30823,-0.0127 -0.37092,-0.0754 -0.15986,-0.15985 z m 4.49792,-7.14375 c 0.19099,-0.0764 0.4192,-0.067 0.50712,0.0209 0.0879,0.0879 -0.0684,0.15045 -0.34727,0.13896 -0.30822,-0.0127 -0.37092,-0.0754 -0.15985,-0.15985 z m 1.14972,-3.78801 c 0,-0.3638 0.06,-0.51263 0.13345,-0.33073 0.0734,0.1819 0.0734,0.47956 0,0.66146 -0.0734,0.1819 -0.13345,0.0331 -0.13345,-0.33073 z m 2.02528,-2.29741 c 0.19099,-0.0764 0.4192,-0.067 0.50712,0.0209 0.0879,0.0879 -0.0684,0.15045 -0.34727,0.13896 -0.30822,-0.0127 -0.37092,-0.0754 -0.15985,-0.15985 z m 5.53971,-4.22782 c 0.1819,-0.0734 0.47956,-0.0734 0.66146,0 0.1819,0.0734 0.0331,0.13345 -0.33073,0.13345 -0.3638,0 -0.51263,-0.06 -0.33073,-0.13345 z m -2.27333,-2.4706 c 0,-0.36381 0.0601,-0.51263 0.13346,-0.33073 0.0734,0.1819 0.0734,0.47955 0,0.66146 -0.0734,0.1819 -0.13346,0.0331 -0.13346,-0.33073 z m 2.60406,-4.21772 c 0,-0.13693 0.1177,-0.32171 0.26155,-0.41062 0.14999,-0.0927 0.19434,0.0135 0.10399,0.24897 -0.17589,0.45837 -0.36554,0.54223 -0.36554,0.16165 z"
             id="path76"
             inkscape:connector-curvature="0" />
          <path
             style="fill:#60afaf;stroke-width:0.11852992"
             d="m 51.561471,247.46118 c 0.190994,-0.0764 0.419197,-0.067 0.507119,0.0209 0.08792,0.0879 -0.06835,0.15046 -0.347266,0.13897 -0.308226,-0.0127 -0.370919,-0.0754 -0.159853,-0.15985 z m 3.439583,-0.26459 c 0.190995,-0.0764 0.419198,-0.067 0.507119,0.0209 0.08792,0.0879 -0.06835,0.15045 -0.347266,0.13896 -0.308226,-0.0127 -0.370919,-0.0754 -0.159853,-0.15985 z m 79.995546,-3.25884 c 0,-0.3638 0.0601,-0.51263 0.13345,-0.33073 0.0734,0.1819 0.0734,0.47956 0,0.66146 -0.0734,0.1819 -0.13345,0.0331 -0.13345,-0.33073 z m -81.583046,-8.11824 c 0.190995,-0.0764 0.419198,-0.067 0.507119,0.0209 0.08792,0.0879 -0.06835,0.15045 -0.347266,0.13896 -0.308226,-0.0127 -0.370919,-0.0754 -0.159853,-0.15985 z m 6.614583,0 c 0.190995,-0.0764 0.419198,-0.067 0.507119,0.0209 0.08792,0.0879 -0.06835,0.15045 -0.347266,0.13896 -0.308226,-0.0127 -0.370919,-0.0754 -0.159853,-0.15985 z m 20.687109,-0.71291 c 0,-0.0549 0.208359,-0.2633 0.46302,-0.46302 0.419645,-0.3291 0.429004,-0.31975 0.0999,0.0999 -0.345643,0.44073 -0.562916,0.58089 -0.562916,0.36312 z m -39.721248,-3.53812 c -0.329107,-0.41965 -0.319749,-0.429 0.0999,-0.0999 0.254661,0.19972 0.463021,0.40808 0.463021,0.46302 0,0.21777 -0.217272,0.0776 -0.562916,-0.36312 z m 46.071247,-2.57969 c 0.341776,-0.3638 0.68094,-0.66146 0.7537,-0.66146 0.07276,0 -0.147341,0.29766 -0.489116,0.66146 -0.341776,0.3638 -0.68094,0.66146 -0.7537,0.66146 -0.07276,0 0.147341,-0.29766 0.489116,-0.66146 z m -60.039526,-1.87413 c 0.0127,-0.30823 0.07539,-0.37092 0.159852,-0.15985 0.07643,0.19099 0.06703,0.4192 -0.02089,0.50712 -0.08792,0.0879 -0.150452,-0.0684 -0.138964,-0.34727 z m 51.969735,-0.11024 c 0.26339,-0.29105 0.538422,-0.52917 0.611182,-0.52917 0.07276,0 -0.08321,0.23812 -0.346599,0.52917 -0.26339,0.29104 -0.538422,0.52916 -0.611182,0.52916 -0.07276,0 0.08321,-0.23812 0.346599,-0.52916 z m 2.645833,-2.64584 c 0.26339,-0.29104 0.538422,-0.52916 0.611182,-0.52916 0.07276,0 -0.08321,0.23812 -0.346599,0.52916 -0.26339,0.29105 -0.538421,0.52917 -0.611182,0.52917 -0.07276,0 0.08321,-0.23812 0.346599,-0.52917 z M 36.529831,197.80035 c 0,-0.0549 0.208359,-0.2633 0.46302,-0.46302 0.419644,-0.3291 0.429003,-0.31975 0.09989,0.0999 -0.345643,0.44073 -0.562915,0.58089 -0.562915,0.36312 z m 1.852083,-2.11666 c 0,-0.0549 0.208359,-0.2633 0.463021,-0.46302 0.419644,-0.32911 0.429002,-0.31975 0.09989,0.0999 -0.345643,0.44073 -0.562915,0.58089 -0.562915,0.36313 z m -4.497917,-1.85209 c 0,-0.0549 0.20836,-0.2633 0.463021,-0.46302 0.419644,-0.3291 0.429002,-0.31975 0.0999,0.0999 -0.345644,0.44073 -0.562916,0.58089 -0.562916,0.36312 z m 10.31875,-4.26573 c 1.668742,-1.67348 3.093608,-3.0427 3.166368,-3.0427 0.07276,0 -1.233043,1.36922 -2.901785,3.0427 -1.668742,1.67349 -3.093607,3.04271 -3.166368,3.04271 -0.07276,0 1.233043,-1.36922 2.901785,-3.04271 z m 7.672916,0.52917 c 0.937477,-0.94588 1.764036,-1.71979 1.836796,-1.71979 0.07276,0 -0.634735,0.77391 -1.572212,1.71979 -0.937477,0.94589 -1.764036,1.71979 -1.836797,1.71979 -0.07276,0 0.634736,-0.7739 1.572213,-1.71979 z m -15.478124,0.92604 c 0.263389,-0.29104 0.53842,-0.52916 0.611181,-0.52916 0.07276,0 -0.08321,0.23812 -0.346598,0.52916 -0.263389,0.29104 -0.53842,0.52917 -0.611181,0.52917 -0.07276,0 0.08321,-0.23813 0.346598,-0.52917 z m 8.334375,-0.62906 c 0,-0.0549 0.208359,-0.2633 0.46302,-0.46302 0.419644,-0.32911 0.429003,-0.31975 0.09989,0.0999 -0.345643,0.44073 -0.562915,0.58088 -0.562915,0.36312 z m 2.116666,-2.38125 c 0,-0.0549 0.20836,-0.2633 0.463021,-0.46302 0.419644,-0.32911 0.429002,-0.31975 0.09989,0.0999 -0.345644,0.44073 -0.562916,0.58088 -0.562916,0.36312 z m 54.01677,-0.69385 c 0,-0.36381 0.0601,-0.51263 0.13346,-0.33073 0.0734,0.1819 0.0734,0.47955 0,0.66146 -0.0734,0.1819 -0.13346,0.0331 -0.13346,-0.33073 z m 66.41042,-0.79375 c 0,-0.36381 0.0601,-0.51263 0.13345,-0.33073 0.0734,0.1819 0.0734,0.47955 0,0.66146 -0.0734,0.1819 -0.13345,0.0331 -0.13345,-0.33073 z m -111.431357,-0.0999 c 0,-0.0549 0.208359,-0.2633 0.463021,-0.46302 0.419645,-0.32911 0.429003,-0.31975 0.0999,0.0999 -0.345644,0.44073 -0.562917,0.58088 -0.562917,0.36312 z m 117.791157,-1.09073 c 0.005,-0.43656 0.0647,-0.58312 0.13178,-0.32569 0.0671,0.25743 0.0627,0.61462 -0.01,0.79375 -0.0725,0.17913 -0.12736,-0.0315 -0.12197,-0.46806 z m -72.76041,-0.26458 c 0.005,-0.43656 0.0647,-0.58313 0.13177,-0.3257 0.0671,0.25744 0.0627,0.61462 -0.01,0.79375 -0.0725,0.17914 -0.12737,-0.0315 -0.12197,-0.46805 z m -55.746371,-2.77813 c 0.263389,-0.29104 0.53842,-0.52916 0.61118,-0.52916 0.07276,0 -0.08321,0.23812 -0.346597,0.52916 -0.263389,0.29104 -0.538421,0.52917 -0.611181,0.52917 -0.07276,0 0.08321,-0.23813 0.346598,-0.52917 z M 173.3403,181.07716 c 0.0127,-0.30823 0.0754,-0.37092 0.15985,-0.15985 0.0764,0.19099 0.067,0.4192 -0.0209,0.50712 -0.0879,0.0879 -0.15045,-0.0684 -0.13896,-0.34727 z M 48.171497,179.5441 c 0,-0.0549 0.208359,-0.2633 0.463021,-0.46302 0.419644,-0.3291 0.429002,-0.31975 0.09989,0.0999 -0.345643,0.44073 -0.562915,0.58089 -0.562915,0.36312 z m 54.470413,-9.09437 c -0.32911,-0.41965 -0.31975,-0.429 0.0999,-0.0999 0.25466,0.19972 0.46302,0.40808 0.46302,0.46302 0,0.21777 -0.21728,0.0776 -0.56292,-0.36312 z m -24.357524,-1.5698 c 0.190995,-0.0764 0.419198,-0.067 0.507119,0.0209 0.08792,0.0879 -0.06835,0.15046 -0.347265,0.13897 -0.308227,-0.0127 -0.37092,-0.0754 -0.159854,-0.15985 z m 22.505444,-0.28228 c -0.32911,-0.41965 -0.31975,-0.42901 0.0999,-0.0999 0.44073,0.34564 0.58089,0.56292 0.36313,0.56292 -0.0549,0 -0.2633,-0.20836 -0.46302,-0.46302 z m -19.082397,0.0232 c 0.181901,-0.0734 0.479557,-0.0734 0.661458,0 0.181901,0.0734 0.03307,0.13345 -0.330729,0.13345 -0.363802,0 -0.51263,-0.06 -0.330729,-0.13345 z m 0,-5.82083 c 0.181901,-0.0734 0.479557,-0.0734 0.661458,0 0.181901,0.0734 0.03307,0.13345 -0.330729,0.13345 -0.363802,0 -0.51263,-0.06 -0.330729,-0.13345 z m 3.985286,-0.006 c 0.190995,-0.0764 0.419198,-0.067 0.507119,0.0209 0.08792,0.0879 -0.06835,0.15046 -0.347265,0.13897 -0.308227,-0.0127 -0.37092,-0.0754 -0.159854,-0.15985 z m 1.149718,-6.963 c 0,-0.3638 0.06005,-0.51263 0.133453,-0.33073 0.0734,0.1819 0.0734,0.47956 0,0.66146 -0.0734,0.1819 -0.133453,0.0331 -0.133453,-0.33073 z m 4.720725,-6.74687 c 0.493654,-0.50933 0.957085,-0.92605 1.029845,-0.92605 0.07276,0 -0.271608,0.41672 -0.765262,0.92605 -0.493654,0.50932 -0.957085,0.92604 -1.029846,0.92604 -0.07276,0 0.271608,-0.41672 0.765263,-0.92604 z m 11.112498,-1.29052 c 0,-0.0549 0.20836,-0.26331 0.46302,-0.46303 0.41965,-0.3291 0.42901,-0.31974 0.0999,0.0999 -0.34565,0.44073 -0.56292,0.58089 -0.56292,0.36313 z m -7.805207,-2.01678 c 0.568389,-0.58208 1.092968,-1.05833 1.165728,-1.05833 0.07276,0 -0.332756,0.47625 -0.901144,1.05833 -0.568389,0.58209 -1.092968,1.05834 -1.165728,1.05834 -0.07276,0 0.332756,-0.47625 0.901144,-1.05834 z m 3.307292,-3.01031 c 0,-0.0549 0.208359,-0.2633 0.463021,-0.46302 0.419645,-0.32911 0.429003,-0.31975 0.0999,0.0999 -0.345644,0.44072 -0.562917,0.58088 -0.562917,0.36312 z"
             id="path74"
             inkscape:connector-curvature="0" />
          <path
             style="fill:#198b8b;stroke-width:0.11852992"
             d="m 135.97941,246.64973 c -0.32911,-0.41965 -0.31975,-0.429 0.0999,-0.0999 0.44073,0.34565 0.58088,0.56292 0.36312,0.56292 -0.0549,0 -0.2633,-0.20836 -0.46302,-0.46302 z m 46.33583,-2.81188 c 0,-0.0549 0.20836,-0.2633 0.46302,-0.46302 0.41965,-0.3291 0.42901,-0.31975 0.0999,0.0999 -0.34565,0.44073 -0.56292,0.58089 -0.56292,0.36312 z m -149.369733,-3.14125 -1.045885,-1.12448 1.12448,1.04589 c 0.618463,0.57524 1.124479,1.08125 1.124479,1.12448 0,0.20018 -0.230413,-1.3e-4 -1.203074,-1.04589 z m 48.960363,-6.81302 c 0.263391,-0.29104 0.538422,-0.52916 0.611183,-0.52916 0.07276,0 -0.08321,0.23812 -0.346599,0.52916 -0.26339,0.29104 -0.538422,0.52917 -0.611182,0.52917 -0.07276,0 0.08321,-0.23813 0.346598,-0.52917 z m -4.101041,-5.65614 c 0,-0.0549 0.208359,-0.2633 0.463021,-0.46302 0.419645,-0.32911 0.429003,-0.31975 0.0999,0.0999 -0.345644,0.44073 -0.562917,0.58089 -0.562917,0.36313 z m 11.509375,-1.75219 c 0.26339,-0.29104 0.538421,-0.52917 0.611182,-0.52917 0.07276,0 -0.08321,0.23813 -0.346599,0.52917 -0.26339,0.29104 -0.538422,0.52917 -0.611182,0.52917 -0.07276,0 0.08321,-0.23813 0.346599,-0.52917 z m -7.011459,-2.74573 c 0,-0.0549 0.20836,-0.2633 0.463021,-0.46302 0.419645,-0.32911 0.429004,-0.31975 0.0999,0.0999 -0.345643,0.44073 -0.562917,0.58088 -0.562917,0.36312 z M 37.588164,196.47744 c 0,-0.0549 0.208359,-0.2633 0.463021,-0.46302 0.419644,-0.32911 0.429002,-0.31975 0.09989,0.0999 -0.345643,0.44073 -0.562915,0.58089 -0.562915,0.36313 z m 2.910416,-3.2074 c 0.341775,-0.3638 0.680939,-0.66146 0.7537,-0.66146 0.07276,0 -0.147342,0.29766 -0.489116,0.66146 -0.341774,0.3638 -0.680939,0.66146 -0.7537,0.66146 -0.07276,0 0.147342,-0.29766 0.489116,-0.66146 z m -5.820833,-0.23219 c 0,-0.0549 0.20836,-0.2633 0.463021,-0.46302 0.419644,-0.3291 0.429002,-0.31975 0.09989,0.0999 -0.345644,0.44073 -0.562916,0.58089 -0.562916,0.36312 z M 49.626705,192.344 c 0.263389,-0.29104 0.53842,-0.52917 0.611181,-0.52917 0.07276,0 -0.08321,0.23813 -0.346598,0.52917 -0.263389,0.29104 -0.53842,0.52917 -0.611181,0.52917 -0.07276,0 0.08321,-0.23813 0.346598,-0.52917 z m -5.953125,-0.62906 c 0,-0.0549 0.20836,-0.2633 0.463021,-0.46302 0.419644,-0.32911 0.429002,-0.31975 0.0999,0.0999 -0.345644,0.44073 -0.562916,0.58089 -0.562916,0.36313 z m -5.688541,-2.28136 c 0.568389,-0.58208 1.092966,-1.05833 1.165726,-1.05833 0.07276,0 -0.332754,0.47625 -0.901143,1.05833 -0.568389,0.58209 -1.092966,1.05834 -1.165726,1.05834 -0.07276,0 0.332754,-0.47625 0.901143,-1.05834 z m 7.540625,0.16469 c 0,-0.0549 0.208359,-0.2633 0.46302,-0.46302 0.419644,-0.32911 0.429003,-0.31975 0.0999,0.0999 -0.345643,0.44073 -0.562915,0.58088 -0.562915,0.36312 z m 8.202083,-1.30581 c 0,-0.0455 0.386953,-0.43249 0.859895,-0.8599 l 0.859896,-0.7771 -0.777105,0.85989 c -0.724371,0.80155 -0.942686,0.98152 -0.942686,0.77711 z m 119.922963,-1.37242 c 0.003,-0.58208 0.0571,-0.78905 0.12041,-0.45993 0.0633,0.32911 0.0609,0.80536 -0.005,1.05833 -0.0662,0.25296 -0.11801,-0.0163 -0.11507,-0.5984 z M 48.43608,186.39087 c 0.493655,-0.50932 0.957086,-0.92604 1.029847,-0.92604 0.07276,0 -0.271609,0.41672 -0.765264,0.92604 -0.493655,0.50933 -0.957086,0.92605 -1.029846,0.92605 -0.07276,0 0.271608,-0.41672 0.765263,-0.92605 z m -0.01106,-0.99218 c 1.096424,-1.16819 1.333974,-1.37824 1.333974,-1.17957 0,0.0425 -0.565547,0.60801 -1.256771,1.25677 l -1.256771,1.17957 z m -5.280609,-1.12448 c 0.790422,-0.80037 1.496663,-1.45521 1.569423,-1.45521 0.07276,0 -0.514417,0.65484 -1.30484,1.45521 -0.790423,0.80036 -1.496663,1.45521 -1.569424,1.45521 -0.07276,0 0.514418,-0.65485 1.304841,-1.45521 z m 13.493749,1.35531 c 0,-0.0549 0.208359,-0.2633 0.463021,-0.46302 0.419645,-0.32911 0.429003,-0.31975 0.0999,0.0999 -0.345644,0.44073 -0.562917,0.58088 -0.562917,0.36312 z m 44.20631,-1.64194 c 0.0127,-0.30823 0.0754,-0.37092 0.15985,-0.15986 0.0764,0.191 0.067,0.4192 -0.0209,0.50712 -0.0879,0.0879 -0.15045,-0.0684 -0.13896,-0.34726 z m -53.466726,-3.68212 c 0.341774,-0.3638 0.680939,-0.66146 0.753699,-0.66146 0.07276,0 -0.147342,0.29766 -0.489116,0.66146 -0.341774,0.3638 -0.680939,0.66146 -0.753699,0.66146 -0.07276,0 0.147342,-0.29766 0.489116,-0.66146 z m 2.513541,-2.24896 c 0.263389,-0.29104 0.538421,-0.52917 0.611181,-0.52917 0.07276,0 -0.08321,0.23813 -0.346597,0.52917 -0.263389,0.29104 -0.538421,0.52917 -0.611181,0.52917 -0.07276,0 0.08321,-0.23813 0.346597,-0.52917 z m 1.984375,-1.6874 c 0,-0.0549 0.20836,-0.2633 0.463021,-0.46302 0.419645,-0.3291 0.429003,-0.31975 0.0999,0.0999 -0.345644,0.44073 -0.562917,0.58089 -0.562917,0.36312 z m 1.852084,-1.5875 c 0,-0.0549 0.208359,-0.2633 0.46302,-0.46302 0.419645,-0.3291 0.429004,-0.31975 0.0999,0.0999 -0.345643,0.44073 -0.562916,0.58089 -0.562916,0.36312 z m 47.996736,-5.25791 -0.50403,-0.59531 0.59532,0.50402 c 0.55944,0.47367 0.71576,0.6866 0.50402,0.6866 -0.0502,0 -0.31809,-0.26789 -0.59531,-0.59531 z m 110.0918,-0.72761 c 0.71667,-0.7276 1.36256,-1.32291 1.43532,-1.32291 0.0728,0 -0.45407,0.59531 -1.17073,1.32291 -0.71667,0.72761 -1.36256,1.32292 -1.43532,1.32292 -0.0728,0 0.45407,-0.59531 1.17073,-1.32292 z M 80.6491,168.62086 c 0.181901,-0.0734 0.479557,-0.0734 0.661458,0 0.181901,0.0734 0.03307,0.13345 -0.330729,0.13345 -0.363802,0 -0.51263,-0.0601 -0.330729,-0.13345 z m 2.650572,-5.83736 c 0.475548,-0.0589 1.189923,-0.0577 1.5875,0.003 0.397576,0.0604 0.0085,0.10855 -0.864635,0.10706 -0.873125,-0.001 -1.198414,-0.0509 -0.722865,-0.10976 z m 10.909323,-8.90398 c 0,-0.0549 0.208359,-0.2633 0.463021,-0.46302 0.419645,-0.32911 0.429003,-0.31975 0.0999,0.0999 -0.345644,0.44072 -0.562917,0.58088 -0.562917,0.36312 z m -4.7625,-2.38125 c 0,-0.0549 0.20836,-0.2633 0.463021,-0.46302 0.419645,-0.32911 0.429003,-0.31975 0.0999,0.0999 -0.345644,0.44072 -0.562917,0.58088 -0.562917,0.36312 z m 3.704167,-4.00115 c 0.341775,-0.3638 0.680939,-0.66145 0.7537,-0.66145 0.07276,0 -0.147341,0.29765 -0.489117,0.66145 -0.341775,0.36381 -0.68094,0.66146 -0.7537,0.66146 -0.07276,0 0.147341,-0.29765 0.489117,-0.66146 z m 10.847918,-1.05833 c 0.34177,-0.3638 0.68094,-0.66146 0.7537,-0.66146 0.0728,0 -0.14734,0.29766 -0.48912,0.66146 -0.34177,0.3638 -0.68094,0.66146 -0.7537,0.66146 -0.0728,0 0.14734,-0.29766 0.48912,-0.66146 z m -6.482293,-3.04271 c 0.26339,-0.29104 0.538421,-0.52916 0.611182,-0.52916 0.07276,0 -0.08321,0.23812 -0.346599,0.52916 -0.26339,0.29104 -0.538422,0.52917 -0.611182,0.52917 -0.07276,0 0.08321,-0.23813 0.346599,-0.52917 z m 2.248958,-1.95197 c 0,-0.0549 0.208359,-0.26331 0.463025,-0.46303 0.41964,-0.3291 0.429,-0.31974 0.0999,0.0999 -0.345642,0.44073 -0.562915,0.58089 -0.562915,0.36313 z"
             id="path72"
             inkscape:connector-curvature="0" />
          <path
             style="fill:#5f5f5f;stroke-width:0.11852992"
             d="m 128.53868,232.12086 c 0.1819,-0.0734 0.47956,-0.0734 0.66146,0 0.1819,0.0734 0.0331,0.13345 -0.33073,0.13345 -0.3638,0 -0.51263,-0.0601 -0.33073,-0.13345 z m 131.49791,-0.26459 c 0.1819,-0.0734 0.47956,-0.0734 0.66146,0 0.1819,0.0734 0.0331,0.13345 -0.33073,0.13345 -0.3638,0 -0.51263,-0.0601 -0.33073,-0.13345 z m -17.95927,-0.81696 c -0.3291,-0.41964 -0.31975,-0.429 0.0999,-0.0999 0.44073,0.34564 0.58089,0.56291 0.36312,0.56291 -0.0549,0 -0.2633,-0.20836 -0.46302,-0.46302 z m 15.75132,-0.13229 -0.50403,-0.59531 0.59532,0.50403 c 0.32742,0.27721 0.59531,0.5451 0.59531,0.59531 0,0.21173 -0.21294,0.0554 -0.6866,-0.50403 z m -64.95009,-1.19062 -0.64143,-0.72761 0.7276,0.64143 c 0.40018,0.35279 0.7276,0.68022 0.7276,0.72761 0,0.20751 -0.21426,0.0386 -0.81377,-0.64143 z m 69.89091,0.30868 c 0.0127,-0.30823 0.0754,-0.37092 0.15985,-0.15986 0.0764,0.191 0.067,0.4192 -0.0209,0.50712 -0.0879,0.0879 -0.15046,-0.0684 -0.13897,-0.34726 z M 86.734516,229.73961 c 0.181901,-0.0734 0.479557,-0.0734 0.661458,0 0.181901,0.0734 0.03307,0.13345 -0.330729,0.13345 -0.363802,0 -0.51263,-0.0601 -0.330729,-0.13345 z m 175.170694,-0.2701 c 0.191,-0.0764 0.4192,-0.067 0.50712,0.0209 0.0879,0.0879 -0.0684,0.15045 -0.34726,0.13896 -0.30823,-0.0127 -0.37092,-0.0754 -0.15986,-0.15985 z m 9.77305,0.005 c 0.1819,-0.0734 0.47956,-0.0734 0.66146,0 0.1819,0.0734 0.0331,0.13346 -0.33073,0.13346 -0.3638,0 -0.51263,-0.0601 -0.33073,-0.13346 z m -73.28958,-0.52916 c 0.1819,-0.0734 0.47956,-0.0734 0.66146,0 0.1819,0.0734 0.0331,0.13345 -0.33073,0.13345 -0.3638,0 -0.51263,-0.06 -0.33073,-0.13345 z m -81.6901,-0.45383 c 0,-0.0549 0.20836,-0.2633 0.46302,-0.46302 0.41964,-0.32911 0.429,-0.31975 0.0999,0.0999 -0.34564,0.44073 -0.56291,0.58088 -0.56291,0.36312 z m 11.77583,-0.42624 c -0.0927,-0.14998 0.0135,-0.19434 0.24897,-0.10398 0.45837,0.17589 0.54223,0.36553 0.16165,0.36553 -0.13694,0 -0.32172,-0.1177 -0.41062,-0.26155 z m 123.69083,0.17876 c 0,-0.0455 0.38695,-0.43249 0.85989,-0.85989 l 0.8599,-0.77711 -0.7771,0.8599 c -0.72438,0.80154 -0.94269,0.98151 -0.94269,0.7771 z m -57.57201,-0.7771 -0.50403,-0.59532 0.59531,0.50403 c 0.32742,0.27722 0.59531,0.54511 0.59531,0.59532 0,0.21173 -0.21293,0.0554 -0.68659,-0.50403 z m -98.225793,-0.99219 c 0,-0.3638 0.06006,-0.51263 0.133453,-0.33073 0.0734,0.1819 0.0734,0.47956 0,0.66146 -0.0734,0.1819 -0.133453,0.0331 -0.133453,-0.33073 z m 41.365513,-0.52917 c 0.26339,-0.29104 0.53842,-0.52916 0.61118,-0.52916 0.0728,0 -0.0832,0.23812 -0.3466,0.52916 -0.26339,0.29104 -0.53842,0.52917 -0.61118,0.52917 -0.0728,0 0.0832,-0.23813 0.3466,-0.52917 z m 106.29693,-0.39687 c 0.003,-0.58209 0.0571,-0.78906 0.12041,-0.45994 0.0633,0.32912 0.0609,0.80537 -0.005,1.05834 -0.0662,0.25296 -0.118,-0.0163 -0.11507,-0.5984 z m -116.422,-0.13229 c 0,-0.50933 0.0545,-0.71769 0.121,-0.46302 0.0665,0.25466 0.0665,0.67138 0,0.92604 -0.0666,0.25466 -0.121,0.0463 -0.121,-0.46302 z m 128.81158,-0.15434 c 0.0127,-0.30823 0.0754,-0.37092 0.15985,-0.15986 0.0764,0.191 0.067,0.4192 -0.0209,0.50712 -0.0879,0.0879 -0.15046,-0.0683 -0.13897,-0.34726 z m 2.40214,-0.11025 c 0,-0.3638 0.06,-0.51263 0.13345,-0.33073 0.0734,0.18191 0.0734,0.47956 0,0.66146 -0.0734,0.1819 -0.13345,0.0331 -0.13345,-0.33073 z M 193.4998,224.094 c 0,-0.65484 0.0516,-0.92273 0.11467,-0.59531 0.0631,0.32742 0.0631,0.8632 0,1.19062 -0.0631,0.32742 -0.11467,0.0595 -0.11467,-0.59531 z m 27.48638,0.52917 c 0,-0.36381 0.0601,-0.51263 0.13346,-0.33073 0.0734,0.1819 0.0734,0.47955 0,0.66146 -0.0734,0.1819 -0.13346,0.0331 -0.13346,-0.33073 z M 95.498161,224.42473 c -0.329107,-0.41965 -0.319749,-0.429 0.0999,-0.0999 0.44073,0.34565 0.580888,0.56292 0.363125,0.56292 -0.05494,0 -0.2633,-0.20836 -0.463021,-0.46302 z m 95.335329,-0.46302 c 0.005,-0.43656 0.0647,-0.58313 0.13177,-0.3257 0.0671,0.25744 0.0627,0.61462 -0.01,0.79375 -0.0725,0.17914 -0.12737,-0.0315 -0.12197,-0.46805 z m -74.73023,0.22165 c 0.18191,-0.0734 0.47956,-0.0734 0.66146,0 0.1819,0.0734 0.0331,0.13345 -0.33073,0.13345 -0.3638,0 -0.51263,-0.0601 -0.33073,-0.13345 z m 23.0849,0.0753 c 0,-0.0549 0.20836,-0.2633 0.46302,-0.46302 0.41965,-0.32911 0.429,-0.31975 0.0999,0.0999 -0.34565,0.44073 -0.56292,0.58089 -0.56292,0.36313 z m 84.15839,-0.58361 c 0.0127,-0.30823 0.0754,-0.37092 0.15985,-0.15986 0.0764,0.191 0.067,0.4192 -0.0209,0.50712 -0.0879,0.0879 -0.15045,-0.0684 -0.13896,-0.34726 z m 28.81869,-1.00389 c 0,-0.0549 0.20836,-0.2633 0.46302,-0.46302 0.41964,-0.32911 0.429,-0.31975 0.0999,0.0999 -0.34565,0.44073 -0.56292,0.58089 -0.56292,0.36313 z M 136.01316,222.4066 c 0,-0.0549 0.20836,-0.2633 0.46302,-0.46302 0.41965,-0.3291 0.429,-0.31975 0.0999,0.0999 -0.34565,0.44073 -0.56292,0.58089 -0.56292,0.36312 z m 84.68755,-0.31902 c 0.0127,-0.30823 0.0754,-0.37092 0.15985,-0.15986 0.0764,0.191 0.067,0.4192 -0.0209,0.50712 -0.0879,0.0879 -0.15046,-0.0684 -0.13897,-0.34726 z m 2.11667,-2.38125 c 0.0127,-0.30823 0.0754,-0.37092 0.15985,-0.15986 0.0764,0.191 0.067,0.4192 -0.0209,0.50712 -0.0879,0.0879 -0.15045,-0.0684 -0.13896,-0.34726 z m 47.33952,-1.53306 c 0,-0.0549 0.20836,-0.2633 0.46303,-0.46302 0.41964,-0.32911 0.429,-0.31975 0.0999,0.0999 -0.34564,0.44073 -0.56292,0.58088 -0.56292,0.36312 z m -152.73072,-0.33991 c 0.1819,-0.0734 0.47956,-0.0734 0.66146,0 0.1819,0.0734 0.0331,0.13345 -0.33073,0.13345 -0.3638,0 -0.51263,-0.0601 -0.33073,-0.13345 z m 42.66406,0.0753 c 0,-0.0549 0.20836,-0.2633 0.46302,-0.46302 0.41965,-0.32911 0.42901,-0.31975 0.0999,0.0999 -0.34564,0.44073 -0.56292,0.58089 -0.56292,0.36313 z m -28.575,-0.52917 c 0,-0.0549 0.20836,-0.2633 0.46302,-0.46302 0.41965,-0.32911 0.42901,-0.31975 0.0999,0.0999 -0.34564,0.44073 -0.56292,0.58088 -0.56292,0.36312 z m 91.08339,-0.82614 c 0.003,-0.58209 0.0571,-0.78906 0.12041,-0.45994 0.0633,0.32912 0.0609,0.80537 -0.005,1.05833 -0.0662,0.25297 -0.118,-0.0163 -0.11507,-0.59839 z m -10.62917,-0.022 c 0.0127,-0.30823 0.0754,-0.37092 0.15985,-0.15986 0.0764,0.191 0.067,0.4192 -0.0209,0.50712 -0.0879,0.0879 -0.15045,-0.0684 -0.13897,-0.34726 z m 36.49161,0.31901 c 0,-0.0549 0.20836,-0.2633 0.46302,-0.46302 0.41965,-0.3291 0.42901,-0.31975 0.0999,0.0999 -0.34564,0.44073 -0.56292,0.58089 -0.56292,0.36312 z M 82.964204,216.1565 c 0.26339,-0.29104 0.538422,-0.52917 0.611182,-0.52917 0.07276,0 -0.08321,0.23813 -0.346599,0.52917 -0.26339,0.29104 -0.538422,0.52917 -0.611182,0.52917 -0.07276,0 0.08321,-0.23813 0.346599,-0.52917 z m 184.811446,0.44638 c 0,-0.0455 0.38696,-0.43249 0.8599,-0.8599 l 0.8599,-0.77711 -0.77711,0.8599 c -0.72437,0.80155 -0.94269,0.98151 -0.94269,0.77711 z m -138.64166,-0.28169 c 0,-0.0549 0.20836,-0.2633 0.46302,-0.46302 0.41965,-0.32911 0.42901,-0.31975 0.0999,0.0999 -0.34564,0.44073 -0.56292,0.58089 -0.56292,0.36313 z m 32.80834,-0.26459 c 0,-0.0549 0.20836,-0.2633 0.46302,-0.46302 0.41964,-0.3291 0.429,-0.31975 0.0999,0.0999 -0.34564,0.44073 -0.56291,0.58089 -0.56291,0.36312 z m -51.85834,-0.26458 c 0,-0.0549 0.20836,-0.2633 0.46303,-0.46302 0.41964,-0.32911 0.429,-0.31975 0.0999,0.0999 -0.34564,0.44073 -0.56292,0.58088 -0.56292,0.36312 z m 9.54589,-0.58361 c 0.0127,-0.30823 0.0754,-0.37092 0.15985,-0.15985 0.0764,0.19099 0.067,0.4192 -0.0209,0.50712 -0.0879,0.0879 -0.15045,-0.0684 -0.13897,-0.34727 z m 78.56036,-0.24254 c 0.34178,-0.3638 0.68094,-0.66145 0.7537,-0.66145 0.0728,0 -0.14734,0.29765 -0.48912,0.66145 -0.34177,0.36381 -0.68094,0.66146 -0.7537,0.66146 -0.0728,0 0.14735,-0.29765 0.48912,-0.66146 z m 48.15417,0.56157 c 0,-0.0549 0.20836,-0.2633 0.46302,-0.46302 0.41964,-0.32911 0.429,-0.31975 0.0999,0.0999 -0.34564,0.44073 -0.56291,0.58089 -0.56291,0.36313 z m 11.13338,-0.31903 c 0.0127,-0.30823 0.0754,-0.37092 0.15985,-0.15985 0.0764,0.19099 0.067,0.4192 -0.0209,0.50712 -0.0879,0.0879 -0.15045,-0.0684 -0.13897,-0.34727 z M 108.3642,214.03983 c 0.56839,-0.58208 1.09297,-1.05833 1.16573,-1.05833 0.0728,0 -0.33276,0.47625 -0.90114,1.05833 -0.56839,0.58209 -1.09297,1.05834 -1.16573,1.05834 -0.0728,0 0.33275,-0.47625 0.90114,-1.05834 z m 2.77813,0.69386 c 0,-0.0549 0.20836,-0.2633 0.46302,-0.46302 0.41964,-0.32911 0.429,-0.31975 0.0999,0.0999 -0.34564,0.44073 -0.56291,0.58089 -0.56291,0.36313 z m 27.05868,-2.46471 c 0.25743,-0.0671 0.61462,-0.0627 0.79375,0.01 0.17913,0.0725 -0.0315,0.12736 -0.46806,0.12197 -0.43656,-0.005 -0.58312,-0.0647 -0.32569,-0.13178 z m 71.20888,-0.41196 -0.50402,-0.59531 0.59531,0.50403 c 0.55944,0.47366 0.71576,0.68659 0.50403,0.68659 -0.0502,0 -0.3181,-0.26789 -0.59532,-0.59531 z m 24.4991,0.23083 c 0,-0.0549 0.20836,-0.2633 0.46302,-0.46302 0.41965,-0.3291 0.429,-0.31975 0.0999,0.0999 -0.34565,0.44073 -0.56292,0.58089 -0.56292,0.36312 z m -91.57958,-0.6277 c -0.32911,-0.41965 -0.31975,-0.42901 0.0999,-0.0999 0.44073,0.34564 0.58088,0.56292 0.36312,0.56292 -0.0549,0 -0.2633,-0.20836 -0.46302,-0.46302 z m 136.76192,-0.52248 c 0.47555,-0.0589 1.18992,-0.0577 1.5875,0.003 0.39758,0.0604 0.008,0.10855 -0.86463,0.10707 -0.87313,-0.002 -1.19842,-0.0509 -0.72287,-0.10976 z m -97.70213,-0.33742 c 0.0899,-0.14552 0.21603,-0.26458 0.2802,-0.26458 0.0642,0 0.11667,0.11906 0.11667,0.26458 0,0.14552 -0.12608,0.26458 -0.28019,0.26458 -0.15411,0 -0.20662,-0.11906 -0.11668,-0.26458 z m 23.08489,-0.96898 c 0.18191,-0.0734 0.47956,-0.0734 0.66146,0 0.1819,0.0734 0.0331,0.13345 -0.33073,0.13345 -0.3638,0 -0.51263,-0.0601 -0.33073,-0.13345 z m -22.57305,-0.64655 c -0.11911,-0.19273 -0.0851,-0.24934 0.0861,-0.14349 0.15558,0.0961 0.33627,0.0252 0.40153,-0.15756 0.0653,-0.18281 0.19738,-0.26005 0.29358,-0.17164 0.0962,0.0884 0.004,0.30254 -0.20481,0.47587 -0.29399,0.24398 -0.42413,0.24327 -0.57644,-0.003 z m 0.76799,-2.15478 c -0.31179,-0.49908 -0.34174,-1.01598 -0.0484,-0.83467 0.14242,0.088 0.19254,0.22647 0.11136,0.30765 -0.0812,0.0812 -0.015,0.30738 0.14708,0.50267 0.16208,0.19529 0.2276,0.35508 0.14561,0.35508 -0.082,0 -0.24205,-0.14883 -0.35568,-0.33073 z m 2.54463,-0.0274 c 0.12459,-0.12474 0.43956,-0.10611 0.70353,0.0416 0.4111,0.23006 0.37955,0.26165 -0.22559,0.22585 -0.38836,-0.023 -0.60247,-0.14279 -0.47794,-0.26747 z m 71.97866,0.25825 c 0,-0.0549 0.20836,-0.2633 0.46302,-0.46302 0.41965,-0.32911 0.42901,-0.31975 0.0999,0.0999 -0.34564,0.44073 -0.56292,0.58088 -0.56292,0.36312 z m -73.57121,-0.84669 c -0.18867,-0.22733 -0.18534,-0.38354 0.0108,-0.50473 0.15619,-0.0965 0.25127,-0.0233 0.21129,0.16285 -0.04,0.18611 0.0662,0.34379 0.23597,0.3504 0.47056,0.0183 0.67448,0.32071 0.21629,0.32071 -0.22059,0 -0.52403,-0.14815 -0.67431,-0.32923 z m 73.8358,-3.12206 c 0,-0.0549 0.20835,-0.2633 0.46302,-0.46302 0.41964,-0.32911 0.429,-0.31975 0.0999,0.0999 -0.34564,0.44073 -0.56291,0.58088 -0.56291,0.36312 z m -70.206,-4.86104 c -0.0675,-0.10914 0.21181,-0.19844 0.62058,-0.19844 0.40877,0 0.68803,0.0893 0.62058,0.19844 -0.0675,0.10914 -0.34671,0.19844 -0.62058,0.19844 -0.27386,0 -0.55312,-0.0893 -0.62058,-0.19844 z m 4.20982,-2.4755 c 0.17761,-0.28738 0.83068,-0.31222 0.99996,-0.038 0.0674,0.10914 -0.16292,0.21556 -0.51179,0.23648 -0.34888,0.0209 -0.56855,-0.0684 -0.48817,-0.19844 z m 2.31882,-1.71372 c -0.0975,-0.2541 0.0841,-0.64445 0.4615,-0.99219 l 0.62226,-0.57328 -0.48529,0.58546 c -0.26691,0.322 -0.41506,0.76849 -0.32921,0.99219 0.0858,0.2237 0.0965,0.40673 0.0238,0.40673 -0.0728,0 -0.20463,-0.18851 -0.29304,-0.41891 z m -4.27878,-0.63943 c 0,-0.3638 0.0601,-0.51263 0.13345,-0.33073 0.0734,0.18191 0.0734,0.47956 0,0.66146 -0.0734,0.1819 -0.13345,0.0331 -0.13345,-0.33073 z m 0.63365,-1.30032 c -0.0852,-0.13784 -0.0421,-0.32031 0.0957,-0.4055 0.13784,-0.0852 0.32032,-0.0421 0.40551,0.0957 0.0852,0.13784 0.0421,0.32031 -0.0957,0.4055 -0.13784,0.0852 -0.32032,0.0421 -0.4055,-0.0957 z m 4.21222,-0.80479 c 0.086,-0.13916 0.33116,-0.18596 0.54478,-0.10398 0.54693,0.20987 0.48248,0.35701 -0.15638,0.35701 -0.29963,0 -0.47441,-0.11386 -0.3884,-0.25303 z m 2.08037,-1.74913 c -0.0875,-0.22806 -0.054,-0.51977 0.0745,-0.64823 0.13504,-0.13503 0.23357,0.0399 0.23357,0.41466 0,0.75113 -0.0847,0.8154 -0.30802,0.23357 z m -4.28041,-0.64367 c 0,-0.36381 0.06,-0.51263 0.13345,-0.33073 0.0734,0.1819 0.0734,0.47955 0,0.66146 -0.0734,0.1819 -0.13345,0.0331 -0.13345,-0.33073 z m 0.63365,-1.30032 c -0.0852,-0.13784 -0.0421,-0.32032 0.0957,-0.40551 0.13784,-0.0852 0.32031,-0.0421 0.4055,0.0957 0.0852,0.13784 0.0421,0.32032 -0.0957,0.4055 -0.13784,0.0852 -0.32032,0.0421 -0.40551,-0.0957 z m 2.114,-0.2689 c -0.0837,-0.13547 -0.0511,-0.30882 0.0726,-0.38524 0.12364,-0.0764 0.2248,0.0344 0.2248,0.2463 0,0.44614 -0.0834,0.48511 -0.29738,0.13894 z m 1.97307,-0.93502 c 0,-0.0676 0.26789,-0.26572 0.59532,-0.44019 0.53981,-0.28763 0.56145,-0.27617 0.23218,0.12298 -0.33809,0.40985 -0.8275,0.59746 -0.8275,0.31721 z m -1.5875,-0.24558 c 0,-0.0572 0.18478,-0.17489 0.41062,-0.26155 0.23546,-0.0904 0.34166,-0.046 0.24897,0.10398 -0.15538,0.25141 -0.65959,0.37186 -0.65959,0.15757 z m -1.05833,-0.42518 c 0,-0.14552 0.12609,-0.26459 0.2802,-0.26459 0.15411,0 0.20661,0.11907 0.11668,0.26459 -0.0899,0.14552 -0.21603,0.26458 -0.2802,0.26458 -0.0642,0 -0.11668,-0.11906 -0.11668,-0.26458 z m 4.40651,-2.18282 c 0.0675,-0.10914 0.28718,-0.19843 0.48828,-0.19843 0.20111,0 0.42084,0.0893 0.48829,0.19843 0.0675,0.10914 -0.15228,0.19844 -0.48829,0.19844 -0.33601,0 -0.55574,-0.0893 -0.48828,-0.19844 z m 2.39315,-1.61149 c -0.0749,-0.1951 -0.0299,-0.52252 0.0999,-0.7276 0.17179,-0.27138 0.23715,-0.17482 0.2401,0.35472 0.004,0.79011 -0.12534,0.93237 -0.34004,0.37288 z m -4.32416,-0.54768 c 0.0209,-0.34887 0.12734,-0.57919 0.23648,-0.5118 0.27418,0.16928 0.24933,0.82235 -0.038,0.99996 -0.13006,0.0804 -0.21936,-0.13929 -0.19843,-0.48816 z m 0.54753,-1.39793 c 0.0386,-0.26279 0.15799,-0.45795 0.26539,-0.43369 0.4018,0.0907 0.41714,0.28682 0.0465,0.59442 -0.31068,0.25784 -0.36893,0.22782 -0.3119,-0.16073 z m 4.84832,-1.84364 c 0.18191,-0.0734 0.47956,-0.0734 0.66146,0 0.1819,0.0734 0.0331,0.13345 -0.33073,0.13345 -0.3638,0 -0.51263,-0.0601 -0.33073,-0.13345 z m 1.53266,-0.60024 c -0.0837,-0.13547 -0.0511,-0.30883 0.0726,-0.38524 0.12364,-0.0764 0.2248,0.0344 0.2248,0.2463 0,0.44613 -0.0834,0.48511 -0.29738,0.13894 z m 0.50699,-0.82964 c -0.0959,-0.1552 -0.11766,-0.33893 -0.0483,-0.40829 0.0693,-0.0694 0.1966,0.0576 0.28277,0.28219 0.17891,0.46623 0.0264,0.54823 -0.23447,0.1261 z m -3.67932,-2.34105 c -0.0852,-0.13784 -0.0421,-0.32032 0.0957,-0.4055 0.13784,-0.0852 0.32032,-0.0421 0.40551,0.0957 0.0852,0.13784 0.0421,0.32032 -0.0957,0.40551 -0.13784,0.0852 -0.32032,0.0421 -0.4055,-0.0957 z m 2.66178,-1.92309 c 0.0764,-0.12364 0.24977,-0.15631 0.38524,-0.0726 0.34618,0.21395 0.3072,0.29738 -0.13894,0.29738 -0.21188,0 -0.32271,-0.10116 -0.2463,-0.2248 z m -0.0114,-2.56744 c -0.0798,-0.12904 0.0217,-0.37294 0.22541,-0.54202 0.26014,-0.21589 0.42266,-0.22286 0.54592,-0.0234 0.0965,0.15619 0.0178,0.25127 -0.17488,0.21128 -0.19272,-0.04 -0.32063,0.0761 -0.28425,0.25803 0.0766,0.38309 -0.10104,0.43779 -0.3122,0.0961 z m 2.65723,-0.60756 c 0.0764,-0.12364 0.24977,-0.15631 0.38523,-0.0726 0.34618,0.21395 0.3072,0.29738 -0.13893,0.29738 -0.21188,0 -0.32272,-0.10116 -0.2463,-0.2248 z m -1.3178,-0.15948 c -0.0707,-0.11434 0.0922,-0.20788 0.36183,-0.20788 0.26968,0 0.4325,0.0935 0.36184,0.20788 -0.0707,0.11434 -0.23348,0.20789 -0.36183,0.20789 -0.12834,0 -0.29117,-0.0936 -0.36183,-0.20789 z m 1.43972,-0.6946 c -0.22602,-0.27233 -0.23002,-0.42264 -0.0148,-0.55566 0.16227,-0.10029 0.36648,-0.11088 0.45382,-0.0236 0.0873,0.0873 0.0129,0.15879 -0.16551,0.15879 -0.17837,0 -0.24951,0.12101 -0.15811,0.2689 0.0914,0.14789 0.29542,0.18903 0.45337,0.0914 0.1714,-0.10593 0.21107,-0.0543 0.0984,0.12798 -0.24067,0.3894 -0.29203,0.38417 -0.66718,-0.0679 z m 3.42004,-2.00793 c 0,-0.14552 0.12609,-0.26458 0.2802,-0.26458 0.15411,0 0.20661,0.11906 0.11668,0.26458 -0.0899,0.14552 -0.21603,0.26459 -0.2802,0.26459 -0.0642,0 -0.11668,-0.11907 -0.11668,-0.26459 z m -3.55335,-1.02835 c -0.0797,-0.12903 0.0217,-0.37294 0.22542,-0.54202 0.26013,-0.21589 0.42265,-0.22286 0.54592,-0.0234 0.0965,0.15619 0.0178,0.25127 -0.17489,0.21129 -0.19271,-0.04 -0.32063,0.0761 -0.28425,0.25802 0.0766,0.3831 -0.10103,0.4378 -0.3122,0.0961 z m 1.38707,-1.00447 c 0.191,-0.0764 0.41921,-0.067 0.50712,0.0209 0.0879,0.0879 -0.0683,0.15045 -0.34726,0.13896 -0.30823,-0.0127 -0.37092,-0.0754 -0.15986,-0.15985 z m 0.57878,-0.7129 c 0,-0.0549 0.20836,-0.26331 0.46302,-0.46303 0.41965,-0.3291 0.429,-0.31974 0.0999,0.0999 -0.34565,0.44073 -0.56292,0.58089 -0.56292,0.36313 z"
             id="path70"
             inkscape:connector-curvature="0" />
          <path
             style="fill:#007e7e;stroke-width:0.11852992"
             d="m 137.89664,247.62169 c -0.49205,-0.10546 -1.25795,-0.55504 -1.70199,-0.99908 -0.67939,-0.67939 -0.82556,-1.05924 -0.9223,-2.39669 -0.11174,-1.54475 -0.0355,-1.76966 2.71606,-8.01636 1.55706,-3.53486 3.13237,-7.14139 3.50068,-8.01452 0.36831,-0.87312 0.8172,-1.82562 0.99753,-2.11667 0.18034,-0.29104 1.48909,-3.02947 2.90835,-6.08541 1.41926,-3.05594 4.40427,-9.42578 6.63335,-14.15521 2.22908,-4.72943 5.20237,-11.3374 6.6073,-14.68438 3.23953,-7.71752 7.14431,-15.62286 8.85093,-17.91892 1.54907,-2.0841 2.3427,-2.44544 3.33126,-1.51673 1.5596,1.46517 2.38054,5.63164 2.78685,14.14399 0.65662,13.7565 4.489,33.26958 7.84329,39.93513 1.03349,2.05372 1.10024,2.03251 1.77249,-0.56319 0.72126,-2.78494 3.25393,-9.91818 5.07584,-14.29606 4.1855,-10.05736 10.76754,-22.47438 18.8322,-35.52692 2.55145,-4.1295 5.44852,-7.56618 7.38928,-8.76564 l 0.85682,-0.52955 1.19344,0.82112 c 1.54116,1.06035 1.82544,1.61827 1.60322,3.14651 -0.3447,2.37056 -3.05529,6.86716 -14.53548,24.11297 -8.08908,12.15161 -9.12437,13.99122 -12.1355,21.56354 -3.05025,7.67072 -5.18331,14.58805 -6.79701,22.04211 -0.91396,4.2218 -1.0609,4.65129 -1.88064,5.49706 -1.11324,1.14856 -2.73033,1.70439 -3.30034,1.13438 -0.51972,-0.51972 -1.18624,-2.91497 -2.75155,-9.88813 -2.34383,-10.44134 -8.8259,-43.64621 -9.25921,-47.43102 -0.2149,-1.87708 -0.67912,-2.94127 -1.09939,-2.5203 -0.52382,0.5247 -14.16774,34.3982 -17.61548,43.73361 -2.51301,6.80445 -4.11094,11.41133 -4.83887,13.95066 -0.89433,3.11975 -0.96161,3.23294 -2.58593,4.35051 -1.43184,0.98513 -2.3236,1.23999 -3.4752,0.99319 z m -91.312643,-0.61732 c -5.458467,-0.97184 -9.67987,-2.83858 -12.661322,-5.59895 -3.953829,-3.66063 -5.894482,-7.77964 -6.669848,-14.15662 -0.25516,-2.09856 -0.219927,-2.55847 0.416421,-5.43564 2.539498,-11.48208 8.884971,-22.32398 20.327622,-34.73186 2.292472,-2.48585 2.592702,-2.93938 1.945802,-2.93938 -0.396588,0 -9.473403,9.12366 -12.268481,12.3318 -3.952944,4.53712 -7.181395,9.39665 -7.911721,11.90888 -0.363336,1.24984 -0.522846,1.43571 -1.810744,2.11001 -1.37644,0.72066 -1.430281,0.72766 -2.119876,0.27582 -1.041767,-0.68259 -1.208848,-1.40665 -0.679492,-2.94466 2.547724,-7.40225 11.439884,-17.90872 25.929555,-30.63691 6.268622,-5.50656 13.387575,-9.59323 21.298958,-12.22679 4.874646,-1.62267 7.962119,-2.08342 12.784235,-1.90781 12.183117,0.4437 20.035794,6.8048 22.585884,18.29582 0.66116,2.97926 0.54099,5.13192 -0.60073,10.76149 -0.95634,4.71546 -1.96355,8.22339 -3.4338,11.95926 -1.14758,2.91596 -4.491838,9.48975 -4.896267,9.62456 -0.13656,0.0455 -0.407691,-0.27735 -0.60252,-0.7175 -0.638588,-1.44267 -2.852637,-2.09516 -5.604129,-1.65156 l -1.463161,0.23589 1.686044,-2.79509 c 1.996508,-3.30977 4.220773,-7.84106 5.196369,-10.58608 0.385111,-1.08359 1.05153,-3.61787 1.480928,-5.63174 0.4294,-2.01386 0.976916,-3.96099 1.216696,-4.32694 0.36292,-0.5539 0.40935,-1.11754 0.27709,-3.3641 -0.51295,-8.7127 -4.447637,-13.89088 -12.001416,-15.79426 -3.99278,-1.00609 -14.255776,-0.34862 -15.604027,0.99963 -0.402764,0.40277 -0.349842,0.45604 0.727427,0.73224 0.638987,0.16384 1.563862,0.5066 2.055278,0.76171 0.889931,0.46198 0.892802,0.46962 0.722021,1.92269 -0.310848,2.64484 -0.463965,2.72993 -6.262618,3.48019 l -3.588782,0.46433 -3.290384,2.47443 c -14.838004,11.15843 -23.697339,22.45806 -26.852948,34.24954 -0.348418,1.30193 -0.785314,2.46096 -0.970879,2.57563 -0.471012,0.29106 -0.610147,4.46363 -0.210194,6.30357 0.922011,4.24161 4.399,8.67889 8.302225,10.59516 3.510009,1.72323 6.392651,2.22088 12.869533,2.22176 5.067271,7.9e-4 5.597951,-0.0463 8.069792,-0.71471 3.402036,-0.91993 8.349083,-3.36754 11.251268,-5.56669 1.240488,-0.93999 3.483472,-2.98406 4.984406,-4.54238 l 2.728973,-2.83332 3.275356,1.52355 3.275359,1.52356 -1.549254,1.74565 c -2.663108,3.00072 -2.256695,2.82156 -5.50101,2.42505 -2.638242,-0.32244 -2.838799,-0.31395 -3.166393,0.13406 -1.006811,1.3769 0.1509,3.02301 2.126086,3.02301 h 1.081553 l -1.315673,1.19212 c -0.723619,0.65568 -2.506297,2.07246 -3.961505,3.14841 -6.807528,5.03336 -13.672775,8.35873 -20.245683,9.80657 -2.675205,0.58927 -8.827004,0.74972 -11.372024,0.2966 z m 43.523956,-25.41071 c -1.164166,-0.47811 -2.617824,-1.10191 -3.230353,-1.3862 l -1.113687,-0.51691 1.143167,-1.70088 c 1.208886,-1.79866 1.772216,-2.13844 5.052957,-3.04773 2.65498,-0.73585 3.178635,-0.47301 2.75074,1.38073 -0.254984,1.10465 -0.236365,1.44922 0.115023,2.12873 0.415366,0.80323 0.408085,0.82576 -0.786215,2.43292 -0.663004,0.8922 -1.342602,1.61238 -1.510213,1.60041 -0.167613,-0.012 -1.257252,-0.41295 -2.421419,-0.89107 z M 87.640531,157.3358 c -0.871944,-0.92814 -0.732808,-2.00186 0.498306,-3.84547 1.385036,-2.0741 5.296876,-6.18826 9.641953,-10.14061 l 3.43951,-3.12864 h 1.42404 c 1.28004,0 1.51086,0.0921 2.28254,0.91027 1.11412,1.18131 1.31949,2.04072 0.76628,3.20653 -0.61331,1.29246 -3.65622,4.02779 -6.819283,6.13 -1.47428,0.97982 -3.692538,2.62744 -4.929465,3.66138 -4.890765,4.08816 -5.286523,4.28947 -6.303881,3.20654 z"
             id="path68"
             inkscape:connector-curvature="0" />
          <path
             style="fill:#020202;stroke-width:0.11852992"
             d="m 80.618636,232.0123 c -0.775481,-0.61 -0.92446,-1.68545 -0.343535,-2.47991 0.338238,-0.46257 0.496313,-0.46554 3.63802,-0.0683 3.449836,0.43614 4.807696,0.3407 6.770923,-0.47591 1.370258,-0.56996 2.995784,-1.71804 2.995784,-2.11586 0,-0.27415 -2.757929,-1.71994 -3.280902,-1.71994 -0.09462,0 -1.772681,-0.77142 -3.729037,-1.71427 -3.165107,-1.52541 -3.612081,-1.82421 -4.056827,-2.71198 -0.772329,-1.54169 -0.89522,-2.3725 -0.470797,-3.1828 0.4684,-0.89425 1.743572,-2.09864 3.403177,-3.21429 5.938617,-3.99212 12.340298,-4.18655 13.051339,-0.39638 0.306719,1.63496 -0.85222,4.91102 -1.876351,5.30402 -0.744582,0.28572 -1.645568,-0.15059 -1.980445,-0.95906 -0.257448,-0.62154 -0.261655,-1.0665 -0.01918,-2.02943 0.248955,-0.98869 0.242115,-1.27983 -0.03448,-1.46763 -1.411607,-0.9585 -10.355339,2.74209 -9.936855,4.11151 0.113633,0.37185 2.229916,1.44055 5.087344,2.56907 5.165738,2.04016 6.488851,3.11269 6.488851,5.25992 0,1.64003 -0.77537,2.80198 -2.59938,3.89536 -2.275219,1.36386 -4.94964,1.9443 -8.958482,1.9443 -3.091696,0 -3.5248,-0.0572 -4.149169,-0.54837 z m 71.672514,-0.23863 c -0.60564,-0.66922 -0.56682,-0.91566 1.56366,-9.92863 0.92875,-3.92906 1.908,-8.08589 2.1761,-9.23739 0.52619,-2.26001 1.092,-2.9772 1.78887,-2.2675 0.3375,0.34371 0.3144,0.80907 -0.18625,3.751 -0.31435,1.84724 -0.47523,3.45458 -0.35751,3.57188 0.11771,0.11729 0.58331,-0.26299 1.03465,-0.84507 2.09996,-2.70825 5.78832,-5.73849 7.83762,-6.43913 1.90374,-0.65088 4.01226,0.65439 3.61486,2.23777 -0.47775,1.90349 -2.76344,2.83482 -4.03214,1.64293 l -0.61105,-0.57405 -1.475,1.01587 c -3.13623,2.16001 -5.50881,5.62971 -7.63235,11.16168 -0.49235,1.28261 -1.10286,3.10592 -1.35669,4.0518 -0.62288,2.32107 -1.39628,2.92901 -2.36477,1.85884 z m 91.27513,0.16323 c -2.65217,-1.22659 -3.21152,-4.88656 -1.4552,-9.52169 0.8221,-2.16962 3.34985,-5.84203 5.61853,-8.16283 2.54697,-2.6055 4.83697,-3.7832 7.3577,-3.78392 2.05786,-5.3e-4 3.26211,0.6498 4.8967,2.6446 l 1.00356,1.22472 -0.82741,3.48905 c -1.36401,5.75185 -1.49086,6.7147 -1.11977,8.49934 0.38653,1.85889 1.30591,2.9323 2.74233,3.20178 0.7835,0.14698 0.96585,0.29768 0.96585,0.7982 0,0.88166 -0.95718,1.44077 -2.46658,1.44077 -1.10739,0 -1.41449,-0.12399 -2.16433,-0.87383 -1.22525,-1.22526 -1.78533,-3.2309 -1.55689,-5.5752 l 0.17724,-1.81882 -3.41086,3.41992 c -2.45371,2.46022 -3.86751,3.65782 -5.03811,4.26766 -1.92565,1.0032 -3.60053,1.26926 -4.72276,0.75025 z m 3.58622,-4.36396 c 2.26002,-1.44943 9.3687,-9.35053 10.21396,-11.35252 0.20019,-0.47417 0.29004,-1.15678 0.19965,-1.51691 -0.23826,-0.94932 -1.67147,-2.25166 -2.47454,-2.24859 -2.21912,0.008 -5.93533,3.12799 -8.60463,7.22305 -2.35797,3.61746 -3.10331,6.4606 -2.09648,7.99721 0.55905,0.85322 1.31594,0.8252 2.76204,-0.10224 z m 19.36423,4.44952 c -1.13917,-0.45776 -1.47845,-2.60658 -0.4725,-2.99259 0.2144,-0.0823 1.64254,0.0148 3.17364,0.21581 2.8339,0.37198 4.97356,0.25029 6.62758,-0.37692 1.12362,-0.42609 3.30617,-1.93978 3.30678,-2.29339 2.6e-4,-0.16322 -1.27941,-0.86494 -2.84376,-1.55939 -1.56435,-0.69445 -3.98703,-1.83283 -5.38373,-2.52974 -2.43688,-1.21592 -2.56312,-1.32211 -3.12526,-2.62883 -0.39125,-0.90949 -0.53026,-1.61458 -0.41857,-2.1231 0.37283,-1.69751 5.38474,-5.24717 8.81786,-6.2452 0.95443,-0.27746 2.17543,-0.38092 3.76501,-0.31901 2.11572,0.0824 2.42151,0.16065 3.03815,0.77755 1.00587,1.00628 1.25095,2.42625 0.7376,4.27354 -0.69091,2.48622 -2.05949,3.50121 -3.12837,2.32011 -0.52675,-0.58205 -0.59788,-1.40543 -0.27227,-3.15185 l 0.21701,-1.16392 -1.69377,0.14287 c -0.93157,0.0786 -2.34861,0.39231 -3.14898,0.69719 -2.17119,0.82706 -5.4072,2.74701 -5.5058,3.26664 -0.0544,0.28674 0.23929,0.65512 0.79141,0.99264 0.83095,0.50798 1.65439,0.8688 6.69877,2.93537 1.33108,0.54532 2.49702,1.24349 3.14149,1.88113 0.98527,0.97485 1.02024,1.06935 0.90586,2.4486 -0.21144,2.54963 -1.99594,4.05998 -6.09467,5.15836 -1.56729,0.42001 -2.80103,0.54384 -5.29,0.53098 -1.78531,-0.009 -3.51487,-0.12481 -3.84348,-0.25685 z m -160.40149,-0.72537 c -1.55979,-1.0127 -1.97506,-1.52139 -2.48595,-3.04515 -0.83924,-2.50314 -0.32505,-5.50105 1.61858,-9.43689 2.67601,-5.41891 7.72117,-8.97972 11.84648,-8.36109 2.20695,0.33096 3.10869,2.04451 2.5472,4.84038 -0.36189,1.80198 -0.89516,2.44966 -2.01693,2.44966 -1.15024,0 -1.70443,-0.70448 -1.89674,-2.41111 -0.21065,-1.8694 -0.48338,-2.35139 -1.33047,-2.35139 -2.4157,0 -6.88887,5.25451 -8.05584,9.46296 -0.69396,2.50266 -0.65376,4.77051 0.1044,5.88949 1.43933,2.12432 3.2654,1.68251 6.67364,-1.61466 2.12522,-2.05595 2.55969,-2.36071 3.36547,-2.36071 0.98974,0 1.801,0.64101 1.801,1.42304 0,1.53893 -1.86612,3.26636 -5.28702,4.89405 -3.35235,1.59509 -5.13613,1.75611 -6.88382,0.62142 z m 20.60385,0.30426 c -1.05578,-0.67853 -1.60555,-1.83612 -1.75475,-3.69478 -0.35762,-4.45525 1.81984,-9.13427 6.40694,-13.76753 2.2922,-2.31527 4.05273,-3.38506 6.32007,-3.84041 2.2117,-0.44417 3.43175,0.0114 5.29175,1.976 1.7725,1.87218 1.73675,1.48223 0.58635,6.39541 -0.37481,1.60073 -0.74943,3.80339 -0.83249,4.89479 -0.15678,2.06004 -1.56726,6.05666 -1.98848,5.63437 -0.39764,-0.39866 -0.69417,-3.27497 -0.46441,-4.50479 0.12508,-0.66954 0.16068,-1.2841 0.0791,-1.36568 -0.0816,-0.0816 -0.75559,0.56325 -1.49779,1.43295 -2.13604,2.50296 -5.05882,5.20553 -6.70676,6.20145 -1.83836,1.111 -4.26151,1.39531 -5.43953,0.63822 z m 3.73782,-4.10661 c 2.87152,-1.63313 10.84792,-10.58681 10.84792,-12.17703 0,-0.94407 -0.84034,-2.34671 -1.65982,-2.77048 -1.61646,-0.8359 -3.78558,0.30818 -6.93829,3.65954 -2.77633,2.95125 -5.17379,7.26284 -5.15442,9.26968 0.007,0.71525 0.9356,2.85195 1.23803,2.8484 0.11625,-0.001 0.86622,-0.37492 1.66658,-0.83011 z m 66.01354,4.18127 c -1.64857,-0.54414 -2.5653,-1.1036 -3.60887,-2.20239 -1.63834,-1.72503 -1.88712,-2.47806 -1.76969,-5.3565 0.0893,-2.1882 0.22264,-2.79108 0.97081,-4.38875 1.89984,-4.05694 5.02507,-7.21411 8.97751,-9.06926 1.64157,-0.77049 2.32087,-0.94974 3.44461,-0.90893 2.84965,0.1035 5.25201,1.80944 6.84555,4.8611 0.66638,1.27613 0.73703,1.66909 0.72971,4.05876 -0.01,3.12116 -0.65794,5.11084 -2.63422,8.08359 -1.3321,2.00377 -2.58288,3.04495 -5.1502,4.28715 -1.49748,0.72456 -2.04472,0.84198 -4.23334,0.90834 -1.57324,0.0477 -2.90945,-0.0545 -3.57187,-0.27311 z m 6.26888,-3.57863 c 2.26452,-1.08631 3.45529,-2.33321 4.77868,-5.00393 1.06693,-2.15315 1.11759,-2.36474 1.12037,-4.67935 0.003,-2.20782 -0.0625,-2.52327 -0.7298,-3.53358 -2.09954,-3.17878 -4.93221,-3.51521 -8.36713,-0.99375 -1.54082,1.13107 -4.11683,4.42295 -5.21073,6.6588 -1.35296,2.76536 -0.95527,6.2481 0.84841,7.42992 2.02163,1.32463 4.9544,1.37191 7.5602,0.12189 z m 19.10986,2.5701 c -0.29652,-0.57341 -0.50728,-2.04283 -0.67301,-4.69233 -0.23134,-3.69818 -1.28964,-9.87812 -2.20249,-12.86136 -0.55418,-1.81109 -0.54585,-1.84299 0.61871,-2.36813 1.09487,-0.49372 1.92201,-0.39551 2.74321,0.3257 0.40604,0.3566 0.45878,0.86542 0.41499,4.0036 -0.049,3.51018 0.65947,10.45894 1.11825,10.96824 0.24932,0.27677 5.05071,-6.08137 8.09489,-10.71949 2.38767,-3.63786 3.48615,-4.89986 4.48267,-5.14997 0.62614,-0.15715 1.43133,0.24917 1.43133,0.72227 0,0.34369 -3.89782,6.37059 -7.38501,11.41888 -1.68632,2.44122 -3.69022,5.35826 -4.45311,6.48229 -1.86874,2.75336 -1.81795,2.70515 -2.84989,2.70515 -0.75214,0 -0.98325,-0.14392 -1.34054,-0.83485 z m -39.13707,-19.6803 c -0.98747,-0.34163 -0.99854,-0.35609 -0.16534,-0.21595 0.98649,0.16591 0.98017,0.11524 -0.17805,-1.42775 -0.355,-0.47294 -0.51227,-0.8599 -0.34948,-0.8599 0.1628,0 0.29599,0.10792 0.29599,0.23982 0,0.13189 0.20836,0.20851 0.46302,0.17026 0.25466,-0.0383 0.3142,-0.0184 0.13229,0.0442 -0.46745,0.16073 -0.43028,0.26995 0.48526,1.42591 0.89441,1.12928 0.8625,1.15838 -0.68369,0.62344 z m -2.38125,-0.65151 c -0.33355,-0.14333 -0.38245,-0.22739 -0.13229,-0.22739 0.21828,0 0.63499,0.10232 0.92604,0.22739 0.33354,0.14333 0.38245,0.22739 0.13229,0.22739 -0.21828,0 -0.635,-0.10233 -0.92604,-0.22739 z m 3.83645,-0.99505 c -0.5637,-0.11013 -0.59044,-0.1551 -0.18093,-0.3043 0.42669,-0.15545 0.35727,-0.33703 -0.61954,-1.62067 -1.06046,-1.39357 -1.06497,-1.40751 -0.12534,-0.38728 1.2077,1.31131 2.09163,2.52544 1.80373,2.47752 -0.11905,-0.0198 -0.51411,-0.0942 -0.87792,-0.16527 z m 69.49723,-0.50426 c -0.097,-0.097 -0.17639,-0.33605 -0.17639,-0.5312 0,-0.33442 4.77318,-6.08079 5.39773,-6.49826 0.62602,-0.41845 1.4943,-0.19913 1.79118,0.45243 0.43556,0.95597 -0.57435,2.33246 -3.49446,4.76287 -2.20397,1.83437 -3.05764,2.27458 -3.51806,1.81416 z m -68.94255,-2.0091 c -0.34978,-0.18043 -0.87735,-0.6532 -1.17238,-1.05061 -1.09571,-1.47593 0.27924,-3.72002 2.01268,-3.28495 l 0.69685,0.1749 -1.03413,1.78256 c -1.11225,1.91721 -1.07039,2.27053 0.269,2.27053 1.03387,0 1.60869,-0.57468 1.85661,-1.85616 l 0.19542,-1.01016 0.0304,0.9423 c 0.0291,0.90028 -0.70296,2.10041 -1.28116,2.10041 -0.12795,0 -0.3912,0.0583 -0.585,0.12962 -0.19381,0.0713 -0.63855,-0.018 -0.98832,-0.19844 z m 0.21966,-2.41078 c 0.44724,-0.7817 0.81316,-1.49607 0.81316,-1.5875 0,-0.0914 -0.28901,-0.16623 -0.64225,-0.16623 -1.12264,0 -2.02886,1.5826 -1.5784,2.75648 0.26601,0.6932 0.55494,0.48735 1.40749,-1.00275 z m 0.87491,-2.92091 c -3.22677,-2.18975 -3.7118,-2.71741 -0.7232,-0.78677 0.65954,0.42607 0.66145,0.42471 0.66145,-0.47029 0,-1.72934 1.40069,-2.69903 2.96358,-2.05166 0.75626,0.31326 1.53434,1.42958 1.53434,2.20135 0,0.74541 -0.58627,1.68646 -1.23472,1.98192 -0.35596,0.16218 -0.57393,0.41344 -0.48437,0.55834 0.33158,0.53651 -0.3261,0.18968 -2.71708,-1.43289 z m 3.52215,0.25316 c 0.87378,-0.87377 0.83045,-1.85609 -0.12396,-2.8105 -0.91434,-0.91433 -1.5492,-0.97152 -2.49821,-0.22503 -1.1351,0.89287 -0.88879,2.57267 0.49348,3.3654 0.82033,0.47045 1.42154,0.37729 2.12869,-0.32987 z m 3.21393,-6.13562 c 1.56302,-0.81473 1.7162,-2.64997 0.30375,-3.63929 -1.32739,-0.92974 -2.86824,-0.11843 -2.86824,1.51024 0,0.94397 0.35362,1.5362 1.19062,1.994 0.29104,0.15919 0.37493,0.29305 0.18642,0.29748 -0.18852,0.004 -0.64179,-0.29098 -1.00726,-0.65645 -0.53727,-0.53727 -0.64895,-0.87756 -0.58328,-1.7773 0.0668,-0.91585 0.23324,-1.21493 0.94018,-1.68977 l 0.85897,-0.57696 -1.32199,-0.84832 c -1.35624,-0.87029 -1.7893,-1.32385 -0.72668,-0.76107 0.32742,0.1734 1.63711,1.0141 2.91041,1.86821 2.17166,1.45671 2.77582,1.96405 1.97115,1.65527 -0.24244,-0.093 -0.34396,0.14542 -0.34396,0.80794 0,1.04716 -0.63634,1.83398 -1.69333,2.09376 -0.53253,0.13088 -0.49681,0.0767 0.18324,-0.27774 z m 0.46619,-4.97688 c -0.87901,-0.879 -0.89697,-2.46535 -0.0371,-3.27319 0.58576,-0.55029 1.7505,-0.77007 2.12045,-0.40011 0.0964,0.0964 -0.24099,0.91936 -0.74965,1.82892 -0.50866,0.90957 -0.92483,1.72754 -0.92483,1.81773 0,0.0902 0.26789,0.27165 0.59531,0.40326 0.47419,0.1906 0.49866,0.2427 0.12027,0.25605 -0.26128,0.009 -0.76729,-0.27547 -1.12448,-0.63266 z m 1.32643,-2.32713 0.72025,-1.25677 h -0.6866 c -0.96013,0 -1.74493,0.87265 -1.74493,1.94028 0,1.68103 0.46189,1.49654 1.71128,-0.68351 z m 0.85298,2.70944 c 0.83002,-0.33433 1.48191,-1.43682 1.28151,-2.16732 -0.1443,-0.52601 -0.1272,-0.54493 0.12648,-0.1399 0.55203,0.88135 -0.40497,2.5887 -1.43357,2.55757 -0.54526,-0.0165 -0.54484,-0.0206 0.0256,-0.25035 z m 2.42779,-4.73271 c 0.28548,-0.18085 0.12984,-0.57087 -0.73746,-1.84803 -0.60462,-0.89034 -1.03977,-1.6188 -0.96701,-1.6188 0.11371,0 1.79634,2.39452 2.3705,3.37344 0.13222,0.22543 -5.3e-4,0.32944 -0.41694,0.32668 -0.44725,-0.003 -0.51398,-0.0655 -0.24909,-0.23329 z m -2.47851,-0.29183 c -0.70802,-0.18016 -0.72231,-0.20197 -0.13229,-0.20197 0.3638,0 1.01865,0.0909 1.45521,0.20197 0.70803,0.18016 0.72231,0.20197 0.13229,0.20197 -0.3638,0 -1.01864,-0.0909 -1.45521,-0.20197 z m 3.30729,-2.29802 c -0.65783,-0.24959 -1.5875,-1.20715 -1.5875,-1.63513 0,-0.32288 0.0674,-0.30919 0.34465,0.07 0.28192,0.38555 0.39499,0.4068 0.6212,0.11672 0.64513,-0.82727 1.49513,-2.61205 1.32501,-2.78217 -0.38881,-0.3888 -1.64589,0.35552 -2.09947,1.24311 -0.33812,0.66164 -0.42495,0.73418 -0.30934,0.2584 0.30254,-1.24512 2.17471,-2.35297 2.84447,-1.68321 0.0929,0.0929 -0.26418,0.94326 -0.79348,1.88973 -0.91957,1.64434 -0.94051,1.73683 -0.47108,2.08009 0.27019,0.19757 0.62061,0.35922 0.7787,0.35922 0.48771,0 1.48949,-0.82059 1.73032,-1.41737 0.16447,-0.40756 0.23353,-0.44504 0.24559,-0.13329 0.0392,1.01483 -1.59077,2.02784 -2.62907,1.63389 z m 2.40214,-2.61882 c 0.0127,-0.30823 0.0754,-0.37092 0.15985,-0.15985 0.0764,0.19099 0.067,0.4192 -0.0209,0.50712 -0.0879,0.0879 -0.15045,-0.0684 -0.13897,-0.34727 z m -1.47609,-2.95161 c -1.60073,-1.09023 -2.70437,-1.91358 -2.45252,-1.82967 0.25184,0.0839 1.56153,0.88912 2.91041,1.78935 2.84051,1.8957 2.70526,1.79421 2.56277,1.92296 -0.0606,0.0548 -1.41993,-0.7924 -3.02066,-1.88264 z m 1.7829,-0.24529 c -0.18357,-0.0739 -0.46762,-0.39198 -0.63122,-0.70671 -0.29544,-0.56838 -0.29306,-0.56822 0.35081,0.0231 0.81792,0.7511 2.14746,0.78181 2.86313,0.0661 1.16386,-1.16385 0.11452,-3.40982 -1.60308,-3.43117 -1.00084,-0.0124 -1.61575,0.56656 -1.84049,1.733 -0.19868,1.03117 -0.19991,1.03205 -0.23017,0.16479 -0.0561,-1.60796 1.71418,-2.67172 3.15923,-1.89836 0.59107,0.31634 1.30826,1.59068 1.30826,2.32459 0,0.27864 -0.24677,0.82034 -0.54837,1.20376 -0.42299,0.53774 -0.77084,0.69237 -1.52135,0.67625 -0.53514,-0.0115 -1.12318,-0.0814 -1.30675,-0.15535 z m 3.51159,-4.20534 c -1.98611,-1.35237 -2.10873,-1.4913 -2.02942,-2.29919 0.18793,-1.91449 1.56307,-2.88721 3.07045,-2.17191 1.84229,0.87423 1.9748,3.26678 0.23151,4.18018 l -0.69569,0.36451 1.02835,0.69879 c 0.56559,0.38433 0.91142,0.69162 0.76849,0.68287 -0.14292,-0.009 -1.21108,-0.66362 -2.37369,-1.45525 z m 1.63377,-0.95621 c 1.26531,-1.1887 0.27503,-3.48165 -1.50366,-3.48165 -1.76036,0 -2.49291,2.16599 -1.15264,3.40812 0.86563,0.80223 1.85158,0.82953 2.6563,0.0735 z m -0.20174,-4.43144 c -1.47276,-1.47276 -0.69033,-3.72452 1.29417,-3.72452 0.46357,0 0.84285,0.0779 0.84285,0.17301 0,0.0952 -0.4305,0.94282 -0.95667,1.88369 -1.03067,1.84302 -0.96376,2.16422 0.45264,2.17258 0.78543,0.005 1.48047,-0.65681 1.84252,-1.75345 0.23608,-0.71511 0.24237,-0.7059 0.11621,0.17 -0.27117,1.88269 -2.2065,2.46391 -3.59172,1.07869 z m 1.02291,-1.87558 0.87027,-1.58436 h -0.78912 c -1.22179,0 -1.96716,1.41474 -1.45228,2.75649 0.25725,0.67037 0.44921,0.50627 1.37113,-1.17213 z m 1.9115,-1.99664 c -0.94388,-0.64637 -1.56896,-1.17522 -1.38906,-1.17522 0.17989,0 0.33782,-0.26789 0.35095,-0.59531 0.0185,-0.4629 0.0786,-0.40608 0.26978,0.25545 0.16158,0.55899 0.65246,1.13047 1.43134,1.66636 0.65199,0.44857 1.18543,0.8694 1.18543,0.93517 0,0.17913 -0.002,0.17773 -1.84844,-1.08645 z"
             id="path66"
             inkscape:connector-curvature="0" />
        </g>
      </g>
    </g>
  </g>
</svg>
