<?xml version="1.0" encoding="utf-8"?><svg version="1.1" id="Livello_1" xmlns="http://www.w3.org/2000/svg" xmlns:xlink="http://www.w3.org/1999/xlink" x="0px" y="0px" viewBox="0 0 141.7 141.7" style="enable-background:new 0 0 141.7 141.7;" xml:space="preserve"><style type="text/css">.st0{fill:#FFFFFF;}</style><g id="Livello_100"><path class="st0" d="M140.5,57.9c0-3.3-2.8-5.9-6.1-5.9c-0.2,0-0.4,0-0.6,0l-42.4-1L76.8,13.1c-0.7-2.5-3.1-4.3-5.9-4.3c-2.8,0-5.2,1.8-5.9,4.3L50.5,51L8,52c-0.2,0-0.4,0-0.6,0c-3.4,0-6.1,2.7-6.1,5.9c0,2.1,1.1,3.9,2.8,5l33.8,23.9l-12.1,37.5c-0.4,0.8-0.7,1.7-0.7,2.7c0,3.3,2.8,6,6.1,6c1.4,0,2.8-0.5,3.8-1.3l35.8-22.7l35.8,22.7c1,0.8,2.4,1.3,3.8,1.3c3.4,0,6.1-2.7,6.1-6c0-1-0.2-1.9-0.7-2.7l-12.1-37.5l33.8-23.9C139.4,61.8,140.5,60,140.5,57.9"/></g><g id="Livello_1_1_"></g></svg>
