<svg xmlns="http://www.w3.org/2000/svg" viewBox="0 0 45.31 44.85"><defs><style>.cls-1{fill:#fff;}</style></defs><title>Asset 1</title><g id="Layer_2" data-name="Layer 2"><g id="Layer_1-2" data-name="Layer 1"><path class="cls-1" d="M17.2,20.48,33.46,4.22,41.24,12,25,28.26Z"/><path class="cls-1" d="M44.1,3.55,41.6,1a3.5,3.5,0,0,0-5,0l-1.8,1.7,7.8,7.8,1.8-1.7A3.88,3.88,0,0,0,44.1,3.55ZM16,22.05v7.8h7.2Z"/><path class="cls-1" d="M29,39.85H5v-24H17.6l5-5H3.5c-1.7,0-3.5.8-3.5,2.5v28a3.85,3.85,0,0,0,3.5,3.5h28c1.7,0,2.5-1.8,2.5-3.5V23.45l-5,5Z"/><rect class="cls-1" x="38.15" y="23.47" width="2.99" height="8.96"/><rect class="cls-1" x="38.03" y="23.54" width="2.99" height="8.96" transform="translate(67.54 -11.5) rotate(90)"/></g></g></svg>
